<svg width="347" height="327" viewBox="0 0 347 327" fill="none" xmlns="http://www.w3.org/2000/svg">
<g clip-path="url(#clip0_242_4070)">
<path d="M161.5 327C250.694 327 323 321.404 323 314.5C323 307.596 250.694 302 161.5 302C72.306 302 0 307.596 0 314.5C0 321.404 72.306 327 161.5 327Z" fill="#CC5D09" fill-opacity="0.47"/>
<path d="M158.646 212.185C158.646 214.786 157.687 217.176 156.072 219.066C155.964 219.196 155.846 219.326 155.738 219.446C154.93 220.306 153.993 221.047 152.949 221.647C152.777 221.747 152.593 221.847 152.41 221.937C150.72 222.797 148.77 223.287 146.692 223.287C143.483 223.287 140.564 222.117 138.421 220.206C138.281 220.086 138.152 219.966 138.022 219.836C135.976 217.846 134.727 215.146 134.727 212.185C134.727 209.825 135.513 207.635 136.859 205.835C136.989 205.675 137.107 205.525 137.226 205.375C137.958 204.515 138.809 203.754 139.767 203.114C139.907 203.024 140.058 202.934 140.209 202.844C142.072 201.724 144.301 201.074 146.692 201.074C149.707 201.074 152.464 202.104 154.564 203.824C154.704 203.934 154.844 204.054 154.973 204.174C157.235 206.195 158.646 209.035 158.646 212.185Z" fill="#283FB9"/>
<path d="M154.973 204.174C152.798 207.345 150.181 210.205 147.424 212.796C147.306 212.916 147.176 213.036 147.047 213.146C146.196 213.936 145.346 214.706 144.473 215.446C144.344 215.556 144.215 215.666 144.075 215.786C142.632 217.006 141.167 218.176 139.756 219.276C139.304 219.626 138.873 219.946 138.421 220.206C138.281 220.086 138.152 219.966 138.022 219.836C138.486 219.596 138.938 219.256 139.412 218.886C140.822 217.796 142.266 216.636 143.709 215.426C143.838 215.306 143.978 215.196 144.107 215.086C144.969 214.336 145.83 213.576 146.681 212.786C146.81 212.676 146.929 212.556 147.058 212.436C149.804 209.855 152.421 206.995 154.564 203.824C154.704 203.934 154.844 204.054 154.973 204.174Z" fill="#F4DAD7"/>
<path d="M152.949 221.647C152.777 221.747 152.593 221.847 152.41 221.937C149.341 220.266 146.53 218.186 144.075 215.786C143.946 215.666 143.827 215.546 143.709 215.426C140.887 212.606 138.561 209.355 136.859 205.835C136.989 205.675 137.107 205.525 137.226 205.375C138.906 208.935 141.253 212.225 144.107 215.086C144.226 215.206 144.344 215.326 144.473 215.446C146.961 217.876 149.815 219.986 152.949 221.647Z" fill="#F4DAD7"/>
<path d="M156.072 219.066C155.964 219.196 155.846 219.326 155.738 219.446C152.54 217.766 149.6 215.626 147.047 213.146C146.918 213.026 146.799 212.906 146.681 212.786C143.827 209.935 141.469 206.665 139.767 203.114C139.907 203.024 140.058 202.934 140.209 202.844C141.899 206.355 144.226 209.615 147.058 212.436C147.187 212.556 147.306 212.676 147.424 212.796C149.966 215.266 152.873 217.396 156.072 219.066Z" fill="#F4DAD7"/>
<path d="M168.478 200.684L167.38 210.025C167.38 210.025 140.995 218.936 136.849 218.496C135.793 218.376 135.05 217.406 134.587 215.936C134.533 215.776 134.49 215.606 134.447 215.426C134.135 214.196 133.995 212.676 134.005 211.035C134.005 210.835 134.016 210.625 134.027 210.415C134.07 208.785 134.264 207.065 134.587 205.405C134.619 205.185 134.662 204.955 134.716 204.735C134.985 203.474 135.33 202.254 135.739 201.154C136.267 199.724 137.753 198.804 139.379 198.904L168.478 200.684Z" fill="#FFC3AA"/>
<path d="M146.207 202.884C146.175 203.024 146.035 203.114 145.895 203.084C145.862 203.084 143.342 202.644 140.241 203.084C138.173 203.384 135.879 204.625 134.587 205.405C134.619 205.185 134.662 204.955 134.716 204.735C136.084 203.934 138.184 202.874 140.165 202.594C143.353 202.134 145.884 202.574 145.992 202.594C146.142 202.624 146.239 202.754 146.207 202.884Z" fill="#1E1E1E"/>
<path d="M146.207 208.155C146.175 208.285 146.035 208.385 145.895 208.345C145.862 208.345 143.342 207.905 140.241 208.355C137.807 208.695 135.061 210.355 134.005 211.035C134.005 210.835 134.016 210.625 134.027 210.415C135.287 209.625 137.818 208.195 140.165 207.855C143.353 207.405 145.884 207.835 145.992 207.855C146.142 207.885 146.239 208.015 146.207 208.155Z" fill="#1E1E1E"/>
<path d="M147.273 212.736C147.284 212.876 147.166 212.996 147.026 212.996C146.983 212.996 143.375 213.166 140.241 213.616C138.173 213.916 135.879 215.156 134.587 215.936C134.533 215.776 134.49 215.606 134.447 215.426C135.793 214.606 138.055 213.426 140.166 213.126C143.321 212.676 146.961 212.496 146.993 212.496C147.176 212.496 147.273 212.596 147.273 212.736Z" fill="#1E1E1E"/>
<path d="M171.731 90.6906C171.752 90.6206 171.763 90.5706 171.774 90.5206C172.237 88.6104 172.495 86.2901 172.355 83.4897C171.817 72.9384 170.934 68.7079 168.898 70.0181C168.747 70.1181 168.618 70.2581 168.5 70.4281C168.015 67.4778 167.391 64.5174 166.787 63.6673C165.506 61.8671 159.303 68.5079 158.333 69.708C157.364 70.9082 158.441 92.5908 158.441 92.5908C158.452 92.8109 158.883 101.362 161.995 101.742C165.161 102.122 167.864 101.152 167.864 101.152C167.864 101.152 169.534 96.9414 170.718 93.701C171.095 92.8409 171.451 91.8308 171.731 90.6906Z" fill="#FFC3AA"/>
<path d="M168.5 70.4281C168.5 70.4281 166.852 72.3284 167.498 77.779C168.144 83.2297 167.348 85.35 167.348 85.35C167.348 85.35 164.558 86.8001 163.826 90.5406" stroke="black" stroke-width="0.411" stroke-miterlimit="10" stroke-linecap="round" stroke-linejoin="round"/>
<path d="M163.694 65.008L164.771 83.0102" stroke="black" stroke-width="0.411" stroke-miterlimit="10" stroke-linecap="round" stroke-linejoin="round"/>
<path d="M160.464 68.0083L161.541 84.0103" stroke="black" stroke-width="0.411" stroke-miterlimit="10" stroke-linecap="round" stroke-linejoin="round"/>
<path d="M160.057 84.7099L166.163 82.2196" stroke="black" stroke-width="0.411" stroke-miterlimit="10" stroke-linecap="round" stroke-linejoin="round"/>
<path d="M141.006 312.508L130.161 312.198L124.819 312.058L108.805 311.598C108.999 310.738 109.721 309.887 110.808 309.077V309.067C110.884 309.007 110.981 308.937 111.067 308.877C111.724 308.407 112.51 307.947 113.382 307.497C113.447 307.457 113.533 307.417 113.608 307.377C114.911 306.717 116.408 306.087 118.013 305.487C118.088 305.457 118.164 305.427 118.239 305.407C119.575 304.907 120.985 304.427 122.418 303.997C122.493 303.967 122.568 303.947 122.644 303.927C124.27 303.427 125.918 302.947 127.501 302.527C127.576 302.507 127.652 302.487 127.727 302.467H127.738C129.633 301.956 131.41 301.516 132.961 301.156H132.972C133.047 301.136 133.122 301.116 133.198 301.096C136.138 300.416 138.13 300.016 138.13 300.016L141.006 312.508Z" fill="#1E1E1E"/>
<path d="M111.724 312.228L111.508 312.318C111.411 312.108 111.304 311.888 111.228 311.658C110.927 310.828 110.787 309.947 110.819 309.067V309.057C110.894 308.997 110.991 308.927 111.077 308.867C111.013 309.807 111.153 310.768 111.487 311.668C111.562 311.868 111.627 312.048 111.724 312.228Z" fill="#FFD1CF"/>
<path d="M115.062 312.658L114.836 312.738C114.696 312.408 114.567 312.078 114.437 311.748C113.931 310.357 113.576 308.947 113.393 307.487C113.457 307.447 113.544 307.407 113.619 307.367C113.802 308.857 114.157 310.327 114.696 311.758C114.814 312.068 114.933 312.368 115.062 312.658Z" fill="#FFD1CF"/>
<path d="M120.135 312.908L119.908 312.978C119.779 312.618 119.65 312.268 119.531 311.908C118.842 309.817 118.411 307.637 118.013 305.497C118.088 305.467 118.164 305.437 118.239 305.417C118.648 307.587 119.079 309.797 119.768 311.918C119.898 312.248 120.016 312.578 120.135 312.908Z" fill="#FFD1CF"/>
<path d="M125.099 312.858L124.862 312.928C124.755 312.638 124.647 312.348 124.561 312.048C123.829 309.977 123.247 307.857 122.816 305.727L122.773 305.507C122.676 304.997 122.568 304.487 122.418 303.987C122.493 303.957 122.568 303.937 122.644 303.917C122.816 304.427 122.924 304.957 123.021 305.467L123.064 305.677C123.484 307.827 124.076 309.957 124.83 312.048C124.905 312.318 125.002 312.588 125.099 312.858Z" fill="#FFD1CF"/>
<path d="M130.452 312.328L130.225 312.398C130.193 312.338 130.182 312.258 130.161 312.198C129.105 309.017 128.212 305.777 127.501 302.517C127.576 302.497 127.652 302.477 127.727 302.457H127.738C128.448 305.737 129.342 309.007 130.408 312.198C130.419 312.248 130.43 312.288 130.452 312.328Z" fill="#FFD1CF"/>
<path d="M136.45 313.598L136.213 313.658C136.095 313.228 135.966 312.798 135.847 312.358C134.792 308.647 133.822 304.887 132.961 301.146C133.036 301.126 133.112 301.106 133.187 301.086C134.059 304.847 135.039 308.637 136.095 312.358C136.213 312.788 136.332 313.188 136.45 313.598Z" fill="#FFD1CF"/>
<path d="M108.805 311.598C108.805 311.598 109.419 313.148 110.722 313.488C112.036 313.828 163.072 314.978 164.591 314.098C166.109 313.218 161.844 311.618 156.417 312.128C151 312.638 108.805 311.598 108.805 311.598Z" fill="#1E1E1E"/>
<path d="M156.427 312.128C155.997 312.568 152.12 312.658 148.361 312.638C144.635 312.618 141.016 312.498 141.016 312.498L138.13 300.006L141.447 299.666L141.533 296.896L151.98 296.086C151.98 296.086 153.369 300.036 154.607 304.027C155.792 307.847 156.847 311.698 156.427 312.128Z" fill="#FF9755"/>
<path d="M156.427 312.128C155.996 312.568 152.12 312.658 148.361 312.638C148.081 311.878 148.307 310.928 148.641 310.137C149.783 307.407 151.84 305.347 154.596 304.017C155.792 307.847 156.847 311.698 156.427 312.128Z" fill="#DE4E4B"/>
<path d="M248.63 282.465C248.63 282.465 249.293 274.878 251.305 275.036C253.306 275.193 250.366 301.842 250.366 301.842L246.618 302.037L248.63 282.465Z" fill="#1E1E1E"/>
<path d="M249.507 287.175C249.076 294.646 247.967 303.167 247.967 303.167H237.295L238.985 292.245L240.278 276.943V276.393C240.278 276.393 240.504 276.293 240.892 276.153C242.529 275.553 247.073 274.173 248.872 276.393C249.766 277.513 249.787 282.104 249.507 287.175Z" fill="#FF9755"/>
<path d="M249.507 287.175C249.464 287.155 249.41 287.135 249.378 287.115C247.924 286.395 246.567 285.424 245.382 284.264C243.519 282.444 241.236 279.474 240.902 276.713C240.881 276.523 240.881 276.343 240.902 276.163C242.539 275.563 247.084 274.183 248.882 276.403C249.766 277.513 249.787 282.104 249.507 287.175Z" fill="#DE4E4B"/>
<path d="M250.562 302.216C250.562 302.216 250.562 302.227 250.552 302.237C250.476 302.887 248.85 316.028 247.967 316.688C247.838 316.788 247.202 316.928 246.233 317.078C245.296 317.228 244.025 317.378 242.561 317.528C242.378 317.538 242.205 317.558 242.012 317.578C242.001 317.578 242.001 317.578 242.001 317.578C239.804 317.778 237.219 317.968 234.678 318.048C234.548 318.058 234.408 318.058 234.279 318.068C232.244 318.118 230.23 318.108 228.474 318.018C228.324 318.008 228.184 317.998 228.033 317.988C224.813 317.768 222.508 317.178 222.465 316.008C222.433 315.098 223.014 314.228 223.941 313.428C224.016 313.368 224.081 313.308 224.167 313.248C225.276 312.338 226.805 311.528 228.345 310.808C228.442 310.768 228.518 310.718 228.614 310.688C229.885 310.097 231.167 309.597 232.179 309.187H232.19C232.298 309.137 232.416 309.087 232.513 309.047C233.385 308.697 234.031 308.417 234.301 308.227C234.322 308.207 234.344 308.197 234.365 308.167C234.376 308.167 234.376 308.167 234.376 308.167C234.462 308.117 234.538 308.027 234.613 307.947C234.958 307.607 235.291 307.097 235.636 306.557C235.69 306.467 235.733 306.387 235.776 306.297C236.035 305.867 236.261 305.417 236.465 305.007C236.508 304.907 236.562 304.827 236.595 304.747C237.015 303.857 237.295 303.177 237.295 303.177L246.912 302.497V302.487L250.562 302.216Z" fill="#1E1E1E"/>
<path d="M228.475 318.018C228.324 318.008 228.184 317.998 228.033 317.988C227.882 317.848 227.731 317.708 227.581 317.558C227.096 317.058 226.676 316.468 226.278 315.908C225.987 315.488 225.675 315.058 225.351 314.678C224.996 314.248 224.511 313.768 223.941 313.428C224.016 313.368 224.081 313.308 224.167 313.248C224.716 313.608 225.19 314.078 225.545 314.498C225.879 314.908 226.191 315.328 226.482 315.748C226.881 316.308 227.29 316.878 227.764 317.378C228.001 317.618 228.216 317.818 228.475 318.018Z" fill="#FFD1CF"/>
<path d="M234.678 318.058C234.548 318.068 234.408 318.068 234.279 318.078C234.182 318.008 234.096 317.928 233.999 317.838C232.524 316.488 231.361 314.748 230.338 313.218C229.81 312.438 229.271 311.628 228.571 311.008C228.496 310.948 228.421 310.878 228.334 310.818C228.431 310.778 228.507 310.728 228.604 310.698C228.658 310.728 228.701 310.758 228.733 310.808C229.454 311.448 230.004 312.278 230.531 313.078C231.555 314.598 232.707 316.318 234.161 317.648C234.344 317.788 234.505 317.928 234.678 318.058Z" fill="#FFD1CF"/>
<path d="M242.561 317.528C242.378 317.538 242.205 317.558 242.012 317.578C242.001 317.578 242.001 317.578 242.001 317.578C240.299 316.798 238.727 315.688 237.445 314.298C236.972 313.788 236.541 313.238 236.11 312.718C235.615 312.088 235.087 311.448 234.516 310.868C233.762 310.087 232.965 309.527 232.179 309.197C232.287 309.147 232.405 309.097 232.502 309.057C233.235 309.397 233.967 309.937 234.688 310.678C235.259 311.268 235.776 311.918 236.293 312.538C236.713 313.068 237.144 313.618 237.618 314.118C239.018 315.608 240.709 316.768 242.561 317.528Z" fill="#FFD1CF"/>
<path d="M234.365 308.167C234.376 308.167 234.376 308.167 234.365 308.167C235.83 308.467 237.036 309.537 238.199 310.568C238.63 310.958 239.061 311.338 239.513 311.688C241.635 313.338 244.306 314.258 246.955 314.258C247.041 314.258 247.106 314.258 247.192 314.258C247.203 314.268 247.203 314.278 247.203 314.288C247.224 314.338 247.278 314.378 247.321 314.378C247.332 314.378 247.353 314.378 247.364 314.368L247.73 314.228C247.784 314.208 247.827 314.138 247.816 314.078C247.795 314.018 247.741 313.968 247.687 313.968C244.866 314.148 241.947 313.238 239.675 311.478C239.233 311.138 238.802 310.738 238.372 310.367C237.241 309.347 236.056 308.317 234.624 307.947L234.365 308.167Z" fill="#FFD1CF"/>
<path d="M247.472 308.577C247.493 308.647 247.45 308.727 247.375 308.737C246.869 308.857 246.352 308.907 245.846 308.907C244.101 308.907 242.356 308.307 240.666 307.727C239.018 307.157 237.306 306.567 235.615 306.547C235.669 306.457 235.712 306.377 235.755 306.287C237.446 306.327 239.115 306.897 240.752 307.467C242.906 308.207 245.135 308.967 247.321 308.477C247.396 308.457 247.461 308.497 247.472 308.577Z" fill="#FFD1CF"/>
<path d="M248.107 304.867C248.15 305.007 248.053 305.147 247.881 305.227C246.998 305.667 246.018 305.777 245.049 305.777C244.661 305.777 244.284 305.757 243.907 305.737C241.419 305.597 238.899 305.297 236.455 304.997C236.498 304.897 236.552 304.817 236.584 304.737C238.996 305.037 241.462 305.327 243.907 305.467C245.199 305.537 246.556 305.577 247.73 305.007C247.709 304.977 247.709 304.937 247.709 304.897C247.73 304.797 247.827 304.737 247.913 304.727C247.924 304.727 247.924 304.727 247.924 304.727C248.01 304.737 248.086 304.787 248.107 304.867Z" fill="#FFD1CF"/>
<path d="M250.552 302.237C250.476 302.887 248.85 316.028 247.967 316.688C247.838 316.788 247.202 316.928 246.233 317.078C246.922 314.638 248.118 302.487 248.118 302.487L250.552 302.237Z" fill="#1E1E1E"/>
<path d="M206.537 215.496C206.537 215.496 153.972 266.612 146.843 292.925C146.358 294.706 146.078 296.376 146.046 297.906C145.432 304.757 147.435 314.778 160.347 315.848C178.774 317.378 238.985 290.825 239.535 290.565C240.084 290.305 240.913 275.753 240.913 275.753L223.94 273.923C228.141 270.703 232.502 267.522 235.83 263.472C239.276 259.271 240.439 254.471 241.398 249.36C242.916 241.229 243.562 232.898 243.735 224.647C243.735 224.537 243.735 224.437 243.745 224.327L206.537 215.496Z" fill="#1E1E1E"/>
<path d="M194.885 206.815C194.885 206.815 138.981 215.806 130.602 232.858C130.365 233.368 125.444 235.668 129.428 257.881C133.413 280.094 140.467 299.886 140.467 299.886H156.783L161.747 253.03C162.146 253.04 162.361 253.03 162.361 253.03L223.768 242.049L194.885 206.815Z" fill="#1E1E1E"/>
<path d="M194.831 226.567C194.831 226.567 143.655 280.814 145.949 299.856" stroke="#7C7C7C" stroke-width="0.5" stroke-miterlimit="10" stroke-linecap="round" stroke-linejoin="round"/>
<path d="M223.94 273.933C223.94 273.933 188.262 285.634 177.611 295.126" stroke="#7C7C7C" stroke-width="0.5" stroke-miterlimit="10" stroke-linecap="round" stroke-linejoin="round"/>
<path d="M239.739 229.398C239.675 237.209 238.996 245.24 236.896 252.82C235.539 257.681 233.514 261.642 229.045 264.532C224.113 267.722 218.814 270.383 213.43 272.863C202.445 277.914 190.965 282.174 180.755 288.545C178.709 289.825 175.78 292.205 175.048 294.466C174.552 296.026 175.371 298.056 177.094 298.336C177.815 298.456 178.548 298.246 179.237 298.006C188.865 294.646 196.209 287.675 205.385 283.574C216.8 278.474 228.474 277.483 240.902 276.713" stroke="#7C7C7C" stroke-width="0.25" stroke-miterlimit="10" stroke-linecap="round" stroke-linejoin="round"/>
<path d="M228.323 223.757C228.323 223.757 217.457 250.98 236.885 252.81" stroke="#7C7C7C" stroke-width="0.25" stroke-miterlimit="10" stroke-linecap="round" stroke-linejoin="round"/>
<path d="M179.689 243.929L157.698 249.54L157.084 273.173" stroke="#7C7C7C" stroke-width="0.25" stroke-miterlimit="10" stroke-linecap="round" stroke-linejoin="round"/>
<path d="M246.405 183.662C245.856 204.445 244.553 232.858 244.553 232.858C243.735 231.618 236.261 226.927 228.636 223.887C228.539 223.837 228.431 223.797 228.324 223.757C227.667 224.277 227.128 224.487 226.342 224.827C225.804 225.067 223.93 225.327 223.585 225.797C223.294 226.207 219.751 226.307 219.127 226.267C217.285 226.157 215.433 225.947 213.634 225.547C211.933 225.167 210.026 225.027 208.314 224.707C206.462 224.367 204.922 223.647 203.069 223.267C200.571 222.767 198.277 222.047 195.811 221.447C195.316 221.327 194.648 221.097 194.163 220.937C188.089 218.956 182.112 217.296 175.995 215.166C175.435 214.976 174.757 214.776 174.229 214.536C174.229 214.526 174.218 214.526 174.208 214.526C173.314 214.136 172.431 213.716 171.558 213.286C171.472 213.246 171.397 213.196 171.321 213.146C170.74 212.756 170.417 212.095 170.481 211.415L170.503 211.305C169.684 211.065 168.887 210.795 168.112 210.475C167.843 210.365 167.563 210.235 167.38 210.015C167.121 209.705 167.121 209.265 167.143 208.875C167.272 206.545 167.531 204.214 167.907 201.914C167.983 201.454 168.091 200.954 168.478 200.674C168.769 200.474 169.146 200.434 169.501 200.394C170.072 200.344 170.697 200.264 171.321 200.254H171.601L171.612 200.174C171.677 199.454 172.344 198.914 173.12 198.944L188.628 199.644L188.897 199.654C188.908 199.594 188.918 199.524 188.929 199.454C189.866 192.833 191.212 183.592 192.666 173.891C192.688 173.721 192.72 173.551 192.742 173.381C192.634 173.421 192.526 173.451 192.419 173.491C191.212 173.911 189.963 174.341 188.671 174.741C180.96 177.161 172.409 178.921 167.724 176.901H167.692C154.047 173.881 158.129 112.283 158.743 103.962C158.775 103.462 159.141 103.052 159.637 102.892C159.604 102.622 159.593 102.372 159.593 102.162C159.583 101.702 159.723 101.222 160.078 100.902C160.337 100.662 160.681 100.532 161.026 100.412C162.006 100.072 162.986 99.7617 163.987 99.4817C164.924 99.2116 166.012 98.9916 166.831 99.5017C167.412 99.8617 167.692 100.492 167.864 101.132C168.317 101.132 168.726 101.412 168.812 101.842L177.826 148.178L177.869 148.418C177.901 148.378 177.945 148.338 177.977 148.298C177.998 148.278 178.02 148.248 178.041 148.228C178.645 147.548 179.248 146.877 179.872 146.197C189.985 135.126 201.26 125.425 201.26 125.425C202.262 124.815 203.533 123.875 204.631 123.015C204.965 122.765 205.277 122.514 205.568 122.284C206.462 121.584 207.076 121.064 207.076 121.064L228.517 119.634C228.517 119.634 229.142 120.184 230.165 121.104L230.564 121.474C232.147 122.915 234.451 125.065 236.831 127.435C239.502 130.095 242.248 133.036 244.122 135.556C244.284 135.756 244.424 135.956 244.553 136.146C245.458 137.406 246.104 138.536 246.373 139.447C250.239 148.238 248.419 164.58 246.405 183.662Z" fill="#559C61"/>
<path d="M183.168 164.48C182.769 164.99 182.252 165.46 181.595 165.62C180.938 165.78 180.131 165.53 179.883 164.94C179.797 164.75 179.775 164.55 179.754 164.34C179.463 161.279 179.172 158.209 178.881 155.138C178.688 153.058 178.085 150.568 177.977 148.308C178.601 147.608 179.226 146.907 179.872 146.207C180.637 146.957 181.24 148.028 181.735 148.898C183.06 151.198 183.835 153.748 184.309 156.309C184.837 159.089 184.955 162.199 183.168 164.48Z" fill="#4E9A5C"/>
<path d="M195.003 159.259C194.713 160.729 194.303 162.189 194.034 163.66C193.409 167.06 193.496 170.57 192.666 173.901C192.688 173.731 192.72 173.561 192.742 173.391C191.428 173.851 190.071 174.311 188.671 174.751C188.671 174.681 188.682 174.611 188.682 174.541C188.886 171.791 189.737 169.12 190.696 166.51C191.568 164.12 192.526 161.749 193.345 159.339C194.099 157.119 194.293 154.588 195.133 152.458C196.436 153.718 195.305 157.729 195.003 159.259Z" fill="#4E9A5C"/>
<path d="M236.767 221.297C241.118 217.006 242.184 210.765 243.067 204.925C243.681 200.834 244.295 196.744 244.908 192.653C243.368 198.324 241.818 204.004 239.416 209.415C237.618 213.466 235.334 217.356 232.33 220.747C231.35 221.857 228.259 223.807 230.639 224.277C232.685 224.687 235.507 222.537 236.767 221.297Z" fill="#4E9A5C"/>
<path d="M213.085 198.554C214.324 197.414 214.776 195.753 215.077 194.163C216.144 188.483 215.939 182.432 218.761 177.301C218.997 178.981 218.857 180.682 218.717 182.362C218.2 188.643 217.684 194.913 217.167 201.194C215.831 201.104 209.251 201.514 208.993 200.324C210.339 199.674 211.879 199.664 213.085 198.554Z" fill="#4E9A5C"/>
<path d="M188.897 199.924C188.886 199.924 188.875 199.924 188.865 199.924C188.714 199.904 188.617 199.784 188.638 199.644L197.932 135.486C197.954 135.346 198.083 135.246 198.234 135.276C198.385 135.296 198.482 135.416 198.46 135.556L189.166 199.714C189.145 199.834 189.037 199.924 188.897 199.924Z" fill="#1E1E1E"/>
<path d="M195.1 157.189C195.09 157.189 195.09 157.189 195.1 157.189C194.95 157.189 194.831 157.069 194.831 156.929L195.37 138.026C195.37 137.886 195.499 137.786 195.639 137.786C195.639 137.786 195.639 137.786 195.65 137.786C195.8 137.786 195.919 137.906 195.908 138.046L195.37 156.949C195.359 157.079 195.24 157.189 195.1 157.189Z" fill="#1E1E1E"/>
<path d="M179.592 165.52C179.442 165.52 179.323 165.41 179.323 165.27C179.237 153.648 177.632 148.548 177.611 148.498C177.568 148.368 177.654 148.228 177.794 148.188C177.945 148.148 178.085 148.228 178.128 148.358C178.149 148.408 179.775 153.558 179.862 165.27C179.862 165.41 179.743 165.52 179.592 165.52Z" fill="#1E1E1E"/>
<path d="M219.439 226.567C219.148 226.567 218.857 226.557 218.567 226.547C204.523 225.897 171.785 213.646 171.451 213.526C171.311 213.476 171.246 213.326 171.3 213.196C171.354 213.066 171.515 213.006 171.655 213.056C171.978 213.176 204.642 225.397 218.599 226.037C218.879 226.047 219.159 226.057 219.439 226.057C230.951 226.057 239.319 214.926 244.316 192.963C244.349 192.833 244.489 192.743 244.639 192.773C244.779 192.803 244.876 192.933 244.844 193.073C239.782 215.306 231.242 226.567 219.439 226.567Z" fill="#1E1E1E"/>
<path d="M230.564 121.484C229.734 122.865 228.399 124.005 227.182 124.925C221.614 129.135 216.154 131.266 210.974 131.266H210.77C208.745 131.246 207.216 130.846 206.106 130.035C203.877 128.415 203.705 125.415 204.631 123.025C204.76 122.685 204.922 122.364 205.094 122.054C205.159 121.934 205.32 121.884 205.46 121.954C205.59 122.014 205.633 122.164 205.568 122.294C204.265 124.595 204.125 127.955 206.44 129.635C207.453 130.375 208.874 130.745 210.77 130.766H210.974C216.036 130.766 221.367 128.675 226.838 124.535C228.054 123.625 229.39 122.484 230.165 121.114L230.564 121.484Z" fill="#1E1E1E"/>
<path d="M244.553 136.156C241.172 135.516 233.719 134.986 229.175 141.237C223.101 149.598 219.913 169.76 219.073 179.251C218.373 187.272 217.845 198.294 217.727 200.834C217.705 201.094 217.705 201.264 217.694 201.334C217.694 201.354 217.694 201.374 217.694 201.374L217.156 201.354C217.156 201.354 217.156 201.334 217.156 201.314C217.167 201.244 217.167 201.074 217.188 200.814C217.307 198.274 217.834 187.242 218.534 179.211C219.374 169.67 222.584 149.408 228.722 140.957C233.224 134.766 240.429 134.966 244.123 135.566C244.284 135.766 244.424 135.966 244.553 136.156Z" fill="#1E1E1E"/>
<path d="M223.499 201.614H223.488C223.025 201.594 177.363 199.404 174.272 199.264C172.7 199.194 172.172 199.524 171.989 199.734C171.795 199.954 171.86 200.194 171.86 200.204C171.903 200.334 171.817 200.474 171.677 200.514C171.537 200.554 171.386 200.474 171.343 200.344C171.289 200.164 171.268 199.784 171.548 199.434C171.978 198.924 172.894 198.694 174.283 198.764C177.385 198.904 223.047 201.094 223.499 201.114C223.65 201.124 223.758 201.244 223.758 201.374C223.758 201.514 223.639 201.614 223.499 201.614Z" fill="#1E1E1E"/>
<path d="M247.375 67.3978C246.879 64.5974 245.684 61.567 242.959 60.3269C242.938 60.2869 242.927 60.2469 242.905 60.2169C243.132 59.7668 242.787 56.1064 242.669 55.7663C242.141 54.2961 241.193 52.936 239.998 51.8559C237.855 49.9156 233.924 47.8854 230.984 49.4956C230.047 50.0056 229.39 50.6457 228.938 51.3758L224.759 54.5062C226.267 65.0375 232.233 79.9493 232.298 80.1093L228.787 101.652L228.625 102.642L228.561 103.062C239.912 97.7515 243.799 87.9603 244.812 79.3592C247.655 76.2688 248.096 71.5383 247.375 67.3978Z" fill="#1E1E1E"/>
<path d="M185.957 78.0191C185.957 78.8592 185.978 79.6893 186.021 80.5394C186.032 80.9294 186.043 81.3195 186.086 81.7195C186.097 82.3096 186.14 82.8897 186.194 83.4797C186.571 88.3103 187.454 93.1109 188.94 97.7615C189.069 98.1615 189.198 98.5716 189.349 98.9716C190.265 101.532 191.557 104.092 193.829 105.812C196.845 108.093 200.829 108.093 204.523 108.003C204.889 107.993 209.725 107.873 209.8 107.403L209.219 112.753V112.763L208.465 119.654L227.839 117.264C227.839 117.264 226.794 114.724 227.72 108.293C228.916 100.062 231.274 88.4003 232.577 77.9891C232.577 77.9891 233.999 49.8556 211.233 49.2155C203.489 48.9955 195.832 51.3258 191.158 57.5165C188.488 61.037 187.152 65.1375 186.495 69.348C186.237 71.0782 186.075 72.8384 186.011 74.5786C186 75.0187 185.989 75.4487 185.968 75.8688C185.946 76.5789 185.946 77.299 185.957 78.0191Z" fill="#FFC3AA"/>
<path d="M209.208 112.753C212.159 112.283 220.882 110.143 222.389 100.942C222.389 100.942 218.803 104.252 209.8 107.393L209.208 112.753Z" fill="#F9B89D"/>
<path d="M229.745 81.8995C229.745 81.8995 235.345 76.4989 241.355 79.8693C247.364 83.2297 247.396 98.1415 230.068 94.221L229.745 81.8995Z" fill="#FFC3AA"/>
<path d="M235.054 92.9209C235.022 92.8909 234.99 92.8509 234.99 92.8009C234.753 85.74 237.725 82.8997 238.479 82.2996C237.251 81.3195 235.905 81.0294 235.797 81.0094C235.701 80.9894 235.647 80.8994 235.668 80.8094C235.69 80.7194 235.776 80.6594 235.873 80.6794C235.905 80.6894 237.445 81.0194 238.813 82.1596C238.845 82.1696 238.867 82.1896 238.888 82.2196L238.899 82.2296C240.008 83.1897 240.988 84.6999 240.87 87.0202C240.622 92.2208 235.248 92.9509 235.194 92.9609C235.184 92.9609 235.184 92.9609 235.173 92.9609C235.13 92.9609 235.087 92.9409 235.054 92.9209ZM235.334 92.5908C236.282 92.4208 240.299 91.4307 240.514 87.0001C240.622 84.8399 239.761 83.4297 238.737 82.5196C238.167 82.9797 235.162 85.73 235.334 92.5908Z" fill="#1E1E1E"/>
<path d="M211.039 94.6211C212.934 98.7316 217.942 100.672 222.239 98.9616C226.536 97.2514 228.474 92.5308 226.579 88.4303C224.684 84.3198 219.676 82.3796 215.379 84.0898C211.082 85.8 209.143 90.5206 211.039 94.6211Z" fill="url(#paint0_linear_242_4070)"/>
<path d="M186.194 83.4797C186.571 88.3103 187.454 93.1109 188.94 97.7615C189.069 98.1615 189.198 98.5716 189.349 98.9716C189.36 98.9716 189.36 98.9616 189.371 98.9616C193.668 97.2514 195.617 92.5308 193.722 88.4203C192.365 85.47 189.36 83.6297 186.194 83.4797Z" fill="url(#paint1_linear_242_4070)"/>
<path d="M212.999 69.8081C210.08 69.438 206.882 70.0781 204.857 71.7083C204.265 72.1883 203.791 72.9784 204.383 73.4485C204.76 73.7485 205.374 73.7585 205.913 73.7585C209.962 73.7885 213.871 74.7887 217.834 75.3687C218.631 75.4887 219.503 75.5688 220.193 75.2587C224.242 73.4685 214.603 70.0081 212.999 69.8081Z" fill="#1E1E1E"/>
<path d="M186.011 74.4786C188.025 73.9986 190.049 73.5685 192.117 73.4785C192.623 73.4585 193.172 73.4285 193.506 73.0885C194.034 72.5584 193.549 71.7283 192.989 71.2282C191.32 69.7681 188.875 69.138 186.517 69.328C186.237 71.0482 186.075 72.7784 186.011 74.4786Z" fill="#1E1E1E"/>
<path d="M205.31 94.8611C203.813 96.0613 201.799 96.6613 199.86 96.4713C198.902 96.3813 197.965 96.1013 197.093 95.7312" stroke="#232020" stroke-width="0.411" stroke-miterlimit="10" stroke-linecap="round" stroke-linejoin="round"/>
<path d="M202.897 98.5316C202.208 98.9816 201.325 99.1616 200.506 99.0316" stroke="#232020" stroke-width="0.2734" stroke-miterlimit="10" stroke-linecap="round" stroke-linejoin="round"/>
<path d="M193.722 74.0486C193.722 74.0486 199.613 81.7895 195.52 88.0103C195.52 88.0103 193.797 91.9808 199.613 92.9609" stroke="#232020" stroke-width="0.5684" stroke-miterlimit="10" stroke-linecap="round" stroke-linejoin="round"/>
<path d="M189.263 80.2993C189.231 81.0894 189.866 81.7495 190.695 81.7795C191.514 81.8095 192.214 81.1994 192.246 80.4093C192.279 79.6192 191.643 78.9591 190.814 78.9291C189.995 78.8991 189.295 79.5192 189.263 80.2993Z" fill="#232020"/>
<path d="M207.55 79.7493C207.345 80.6394 207.926 81.5095 208.853 81.6995C209.779 81.8895 210.694 81.3295 210.899 80.4394C211.103 79.5493 210.522 78.6791 209.596 78.4891C208.67 78.2991 207.754 78.8592 207.55 79.7493Z" fill="#232020"/>
<path d="M172.926 59.1267C171.978 61.447 171.989 64.4374 174.046 66.0276C175.435 67.1077 177.417 67.2777 179.226 67.1177C184.525 66.6577 189.511 63.7673 192.268 59.5468C193.259 62.0671 196.349 63.3473 199.225 63.5673C204.093 63.9373 209.1 61.8671 212.073 58.2666C212.643 60.837 216.143 62.4172 218.674 61.247C219.45 60.887 220.107 60.3369 220.742 59.7868C224.188 56.8565 227.624 53.9161 231.07 50.9858C229.605 47.2653 227.257 43.7449 223.833 41.3846C220.408 39.0243 215.799 37.9642 211.739 39.1943C206.968 33.9237 198.008 32.4235 191.557 35.8239C188.251 37.5741 185.505 40.9245 186.151 44.4049C183.028 43.7149 179.603 44.2949 176.943 45.9651C175.349 46.9653 173.96 48.4854 173.841 50.2757C173.723 52.1959 175.263 53.136 176.76 53.9961C175.263 55.6363 173.777 57.0565 172.926 59.1267Z" fill="#1E1E1E"/>
<path d="M237.284 61.537C236.088 58.5367 231.134 49.6656 226.439 52.816C224.285 54.2661 223.973 57.9266 223.854 60.1569C223.811 61.047 224.188 68.5179 225.448 68.5079C225.901 68.4979 226.342 68.2779 226.59 67.9178C226.041 71.0082 226.461 74.2486 227.785 77.1289C228.227 78.0891 228.787 79.0392 229.648 79.7093C229.81 79.8393 229.993 79.9493 230.187 80.0493C229.53 82.0295 229.314 84.0898 229.799 86.3201C229.853 86.5701 229.928 86.8301 230.111 87.0202C230.488 87.3902 231.199 87.2802 231.598 86.9301C231.996 86.5801 232.168 86.06 232.341 85.57C233.105 83.2997 234.01 81.0794 235.065 78.9192C235.216 78.6091 235.367 78.2991 235.496 77.9791C236.174 77.199 236.821 76.3989 237.338 75.5188C239.858 71.2982 239.082 66.0476 237.284 61.537Z" fill="#1E1E1E"/>
<path d="M208.465 119.644C208.465 119.644 204.06 125.485 206.817 127.015C209.563 128.545 224.005 126.655 228.948 121.174L227.839 117.254L215.788 114.634L208.465 119.644Z" fill="#FFC3AA"/>
<path d="M143.946 121.084C141.749 119.314 132.401 123.265 117.55 121.124C102.699 118.984 88.408 116.584 83.6371 119.654C78.8663 122.725 66.4061 131.586 65.1246 137.796C63.843 144.007 70.6277 177.351 70.6277 177.351C70.6277 177.351 59.6322 207.685 41.3027 226.577C22.9732 245.47 2.85605 269.302 14.3793 292.455C16.3608 296.446 18.364 299.636 20.3886 302.226C15.9624 303.417 3.27606 306.887 0.336018 308.347C-3.23941 310.117 22.6286 315.778 34.7226 312.118C39.8273 313.368 44.9643 312.988 50.1121 313.268C50.1121 313.268 99.6081 315.108 99.7912 311.618C99.9743 308.127 88.0633 305.427 88.0633 305.427L97.1742 274.823C97.6696 275.263 98.5958 275.343 98.9081 274.783C97.7342 277.253 96.8942 279.854 96.4204 282.514C96.2588 283.414 96.1511 284.384 96.5711 285.214C96.9911 286.044 98.1435 286.615 99.005 286.155C97.1742 289.005 97.8419 293.025 100.513 295.226C100.524 295.236 100.534 295.246 100.556 295.256C100.771 304.497 101.417 312.128 102.914 312.338C106.759 312.888 116.118 315.438 116.118 311.608C116.118 307.777 112.413 300.116 114.265 285.474C116.118 270.833 119.607 236.958 119.607 236.958C119.607 236.958 127.802 219.426 129.019 196.614C130.236 173.801 120.705 155.959 120.705 155.959C120.705 155.959 137.462 153.038 140.446 142.997C143.396 132.936 146.143 122.845 143.946 121.084Z" fill="url(#paint2_linear_242_4070)"/>
<path d="M154.467 102.122C154.499 92.5208 150.31 89.5105 146.455 91.7207C142.61 93.931 139.842 136.996 137.785 144.157C135.728 151.308 118.045 157.119 118.045 157.119C118.045 157.119 121.707 191.393 126.391 190.423C127.178 190.263 128.384 189.293 129.838 187.792C129.838 188.293 129.87 188.763 129.999 189.153C130.548 190.733 131.83 190.623 132.627 189.033C133.607 187.102 134.167 185.002 134.328 182.872C134.447 183.902 135.944 184.692 137.096 184.312C138.442 183.872 139.185 182.552 139.584 181.282C140.155 179.411 140.241 177.411 139.821 175.501C141.178 176.381 143.192 175.411 143.838 173.991C144.484 172.571 144.172 170.95 143.849 169.44C145.356 169.4 146.692 168.45 147.51 167.27C148.329 166.09 148.706 164.71 149.072 163.349C149.309 162.469 149.546 161.589 149.783 160.709C149.933 160.159 150.073 159.599 150.213 159.039C150.763 158.019 151.118 157.259 151.215 156.839C152.109 153.308 154.435 111.723 154.467 102.122Z" fill="url(#paint3_linear_242_4070)"/>
<path d="M131.873 121.584C131.873 121.584 136.041 135.516 144.743 131.276C144.743 131.276 146.864 122.815 144.743 121.084C142.61 119.354 131.873 121.584 131.873 121.584Z" fill="#1E1E1E"/>
<path d="M108.859 134.936C110.263 134.936 111.401 133.879 111.401 132.576C111.401 131.272 110.263 130.215 108.859 130.215C107.455 130.215 106.317 131.272 106.317 132.576C106.317 133.879 107.455 134.936 108.859 134.936Z" fill="#1E1E1E"/>
<path d="M112.456 144.137C112.456 147.288 109.71 149.838 106.318 149.838C102.925 149.838 100.179 147.288 100.179 144.137C100.179 140.987 102.925 138.436 106.318 138.436C109.71 138.436 112.456 140.987 112.456 144.137Z" fill="#F1C3B5"/>
<path d="M128.135 190.023C128.135 190.023 126.078 190.033 123.298 189.541C120.749 189.08 117.598 188.187 114.869 186.451C113.605 185.639 112.431 184.655 111.457 183.441C110.765 182.579 110.143 181.726 109.581 180.883C107.755 178.184 106.51 175.666 105.306 173.629C104.002 171.432 102.737 169.797 100.801 169.095C98.1015 168.121 96.5562 166.938 95.7935 166.205C95.342 165.774 95.1614 165.503 95.1614 165.503L94.77 159.844C94.77 159.844 102.366 159.212 109.852 158.209C113.364 157.727 116.866 157.176 119.535 156.564H119.545C121.672 156.072 123.278 155.56 123.95 155.019C123.95 155.019 124.532 157.587 125.265 161.57C125.696 163.888 126.168 166.687 126.609 169.747C127.292 174.442 127.884 179.749 128.084 184.836C128.155 186.602 128.175 188.347 128.135 190.023Z" fill="black"/>
<path d="M119.538 159.457C119.603 162.562 117.344 165.607 114.138 166.694C109.49 168.281 107.242 163.747 107.769 160.162C107.855 159.594 108.059 159.085 108.382 158.625C112.147 158.155 115.902 157.616 118.764 157.019H118.774C119.312 157.695 119.517 158.605 119.538 159.457Z" fill="#FFC682"/>
<path d="M105.538 172.258C105.549 172.863 105.483 173.478 105.229 174.021C103.795 171.736 102.405 170.036 100.275 169.306C97.3076 168.294 95.6085 167.063 94.77 166.301C95.9947 165.571 97.5283 165.112 98.9846 165.029C102.747 164.799 105.483 169.128 105.538 172.258Z" fill="#FFC682"/>
<path d="M112.786 176.637C114.576 179.144 118.285 180.499 121.609 179.868C122.788 179.645 123.988 179.125 124.546 178.197C124.857 177.668 124.943 177.064 124.921 176.47C124.857 173.676 122.198 169.833 118.553 170.028C114.608 170.25 110.17 172.989 112.786 176.637Z" fill="#FFC682"/>
<path d="M116.309 187.023C114.84 186.522 113.44 185.612 112.539 184.522C112.05 184.022 110.875 183.022 110.385 182.022C112.866 182.157 115.761 184.689 116.309 187.023Z" fill="#FFC682"/>
<path d="M128.133 190.023C128.133 190.023 125.853 190.033 122.772 189.559C122.705 187.276 125.296 185.593 128.077 185.022C128.155 186.725 128.177 188.408 128.133 190.023Z" fill="#FFC682"/>
<path d="M126.001 170.02C124.981 169.422 124.108 168.587 123.481 167.576C122.049 165.249 122.951 163.276 124.687 162.019C125.109 164.287 125.57 167.026 126.001 170.02Z" fill="#FFC682"/>
<path d="M73.18 307.377C73.18 307.377 80.0509 305.447 88.031 305.417C88.031 305.417 93.0603 288.515 80.8801 269.122C68.6999 249.74 47.3335 259.591 47.3335 259.591" stroke="#898686" stroke-width="0.5" stroke-miterlimit="10" stroke-linecap="round" stroke-linejoin="round"/>
<path d="M88.031 305.407C88.031 305.407 98.8435 307.507 99.7589 311.598" stroke="#898686" stroke-width="0.5" stroke-miterlimit="10" stroke-linecap="round" stroke-linejoin="round"/>
<path d="M93.9001 226.567L99.7695 265.702C99.7695 265.702 95.4186 274.843 97.1525 274.803C98.8864 274.763 98.8864 274.763 98.8864 274.763C98.3694 275.803 97.9063 276.873 97.4863 277.943C96.7756 279.734 95.8817 281.704 96.0217 283.654C96.1079 284.844 96.9156 285.864 98.1433 286.245C98.4233 286.335 98.7033 286.335 98.9402 286.245C98.4879 286.405 98.4664 287.445 98.391 287.805C98.251 288.525 98.1433 289.245 98.1217 289.975C98.0571 292.295 99.3279 293.955 100.556 295.846C100.556 295.846 100.685 310.718 102.483 312.048" stroke="#898686" stroke-width="0.5" stroke-miterlimit="10" stroke-linecap="round" stroke-linejoin="round"/>
<path d="M93.5449 216.656C91.9403 218.136 90.5187 219.796 89.3233 221.577C88.7633 222.417 88.2356 223.327 88.1495 224.307C88.1279 224.527 88.1387 224.777 88.2787 224.957C88.5372 225.287 89.0972 225.237 89.5172 225.097C90.2926 224.817 90.971 224.317 91.4341 223.677C90.6156 224.777 90.0987 226.057 89.9372 227.387C89.8403 228.137 90.0233 229.118 90.8203 229.298C91.4449 229.438 92.0372 228.968 92.4572 228.507C93.028 227.877 93.5234 227.197 93.9434 226.477" stroke="#898686" stroke-width="0.5" stroke-miterlimit="10" stroke-linecap="round" stroke-linejoin="round"/>
<path d="M121.298 214.086L119.564 236.948" stroke="#898686" stroke-width="0.5" stroke-miterlimit="10" stroke-linecap="round" stroke-linejoin="round"/>
<path d="M70.617 177.341C70.7031 179.811 70.197 182.382 70.2831 184.862C70.3585 186.822 70.8 189.263 72.8139 189.823C74.5801 190.313 76.2493 189.003 77.8971 188.243C80.7079 186.952 84.0033 187.232 87.1372 187.212C90.2711 187.192 93.7603 186.652 95.6557 184.332C97.2173 182.422 97.2496 179.781 96.765 177.421C96.2804 175.061 95.3327 172.781 95.1604 170.38C95.0204 168.44 95.3973 166.47 95.1496 164.54C94.805 161.829 93.2865 159.389 92.0695 156.909C89.528 151.758 87.0833 142.777 87.0618 137.106" stroke="#898686" stroke-width="0.5" stroke-miterlimit="10" stroke-linecap="round" stroke-linejoin="round"/>
<path d="M106.317 158.939C106.317 158.939 130.279 155.619 136.859 149.488C143.439 143.357 147.306 123.525 145.313 121.934C143.321 120.334 140.402 120.684 140.402 120.684" stroke="#898686" stroke-width="0.5" stroke-miterlimit="10" stroke-linecap="round" stroke-linejoin="round"/>
<path d="M89.1294 137.786C89.1294 137.786 87.4171 142.407 88.2248 145.537" stroke="#898686" stroke-width="0.5" stroke-miterlimit="10" stroke-linecap="round" stroke-linejoin="round"/>
<path d="M124.324 158.939L123.473 155.399" stroke="#1E1E1E" stroke-width="0.5" stroke-miterlimit="10" stroke-linecap="round" stroke-linejoin="round"/>
<path d="M27.8193 307.377C27.8193 307.377 32.5686 312.398 38.3087 312.748C44.0488 313.098 59.5782 313.528 59.5782 313.528" stroke="#898686" stroke-width="0.5" stroke-miterlimit="10" stroke-linecap="round" stroke-linejoin="round"/>
<path d="M73.3522 184.072C73.0399 182.552 72.9107 181.002 72.9645 179.451" stroke="#898686" stroke-width="0.5132" stroke-miterlimit="10" stroke-linecap="round" stroke-linejoin="round"/>
<path d="M75.2045 180.182C75.1399 179.131 75.1937 178.071 75.3876 177.041" stroke="#898686" stroke-width="0.5132" stroke-miterlimit="10" stroke-linecap="round" stroke-linejoin="round"/>
<path d="M75.3445 182.572C75.4306 183.712 75.6999 184.832 76.1199 185.902" stroke="#898686" stroke-width="0.5132" stroke-miterlimit="10" stroke-linecap="round" stroke-linejoin="round"/>
<path d="M83.6694 123.365C84.4771 122.524 85.3818 121.774 86.3618 121.114" stroke="#898686" stroke-width="0.3727" stroke-miterlimit="10" stroke-linecap="round" stroke-linejoin="round"/>
<path d="M86.8894 122.635C87.514 122.134 88.1925 121.704 88.9248 121.344" stroke="#898686" stroke-width="0.3727" stroke-miterlimit="10" stroke-linecap="round" stroke-linejoin="round"/>
<path d="M85.4787 123.775C84.811 124.325 84.2295 124.965 83.7556 125.655" stroke="#898686" stroke-width="0.3727" stroke-miterlimit="10" stroke-linecap="round" stroke-linejoin="round"/>
<path d="M131.108 175.341C131.615 174.321 132.25 173.361 132.993 172.471" stroke="#1E1A19" stroke-width="0.3727" stroke-miterlimit="10" stroke-linecap="round" stroke-linejoin="round"/>
<path d="M133.973 173.781C134.415 173.131 134.932 172.541 135.513 172.001" stroke="#1E1A19" stroke-width="0.3727" stroke-miterlimit="10" stroke-linecap="round" stroke-linejoin="round"/>
<path d="M132.961 175.241C132.498 175.951 132.131 176.711 131.895 177.511" stroke="#1E1A19" stroke-width="0.3727" stroke-miterlimit="10" stroke-linecap="round" stroke-linejoin="round"/>
<path d="M15.6285 283.214C14.9931 281.484 14.5731 279.684 14.3577 277.863" stroke="#898686" stroke-width="0.6067" stroke-miterlimit="10" stroke-linecap="round" stroke-linejoin="round"/>
<path d="M17.1038 278.384C16.8346 277.163 16.7269 275.923 16.7592 274.673" stroke="#898686" stroke-width="0.6067" stroke-miterlimit="10" stroke-linecap="round" stroke-linejoin="round"/>
<path d="M17.6963 281.164C17.9978 282.484 18.504 283.754 19.1932 284.944" stroke="#898686" stroke-width="0.6067" stroke-miterlimit="10" stroke-linecap="round" stroke-linejoin="round"/>
<path d="M97.6804 236.928C97.1096 235.358 96.7219 233.738 96.5281 232.088" stroke="#898686" stroke-width="0.5486" stroke-miterlimit="10" stroke-linecap="round" stroke-linejoin="round"/>
<path d="M99.0159 232.568C98.779 231.468 98.6713 230.338 98.7036 229.218" stroke="#898686" stroke-width="0.5486" stroke-miterlimit="10" stroke-linecap="round" stroke-linejoin="round"/>
<path d="M99.5435 235.068C99.8235 236.258 100.276 237.409 100.89 238.489" stroke="#898686" stroke-width="0.5486" stroke-miterlimit="10" stroke-linecap="round" stroke-linejoin="round"/>
<path d="M278.735 262.712H314.242C314.91 262.712 315.48 263.152 315.599 263.772C316.245 267.282 318.41 278.644 320.52 283.764C322.965 289.715 323.224 309.887 323.18 320.619C323.17 324.409 319.853 327.47 315.771 327.47H272.844C269.387 327.47 266.587 324.859 266.62 321.639C266.727 310.727 267.309 287.865 270.141 282.844C272.995 277.793 276.441 266.852 277.432 263.622C277.583 263.082 278.121 262.712 278.735 262.712Z" fill="#FFFDFD"/>
<path d="M293.22 276.113C293.22 276.113 294.491 273.183 297.022 273.873C299.553 274.563 296.666 277.183 296.666 277.183C296.666 277.183 299.488 278.224 298.54 280.084C297.571 281.984 294.189 279.854 294.189 279.854L284.303 280.174C284.303 280.174 281.255 283.804 279.618 282.314C277.982 280.814 280.049 279.214 280.049 279.214C280.049 279.214 276.883 277.984 278.498 276.273C280.114 274.563 283.959 276.703 283.959 276.703L293.22 276.113Z" fill="#FFC3AA"/>
<path d="M300.995 285.274C300.995 285.274 303.397 283.034 305.443 284.594C307.479 286.145 303.731 287.515 303.731 287.515C303.731 287.515 305.896 289.495 304.237 290.865C302.546 292.265 300.328 289.075 300.328 289.075L291.088 285.794C291.088 285.794 286.758 288.035 285.875 286.064C284.992 284.094 287.577 283.364 287.577 283.364C287.577 283.364 285.175 281.084 287.383 280.094C289.591 279.104 292.24 282.464 292.24 282.464L300.995 285.274Z" fill="#FFC3AA"/>
<path d="M288.471 307.707C288.471 307.707 290.915 305.427 292.994 307.007C295.072 308.587 291.249 309.977 291.249 309.977C291.249 309.977 293.457 311.988 291.766 313.388C290.043 314.818 287.781 311.568 287.781 311.568L278.369 308.217C278.369 308.217 273.954 310.497 273.06 308.497C272.166 306.497 274.794 305.747 274.794 305.747C274.794 305.747 272.349 303.427 274.589 302.417C276.829 301.406 279.532 304.827 279.532 304.827L288.471 307.707Z" fill="#FFC3AA"/>
<path d="M286.597 316.778C286.597 316.778 289.042 314.498 291.12 316.078C293.199 317.658 289.375 319.049 289.375 319.049C289.375 319.049 291.583 321.059 289.892 322.459C288.169 323.889 285.908 320.639 285.908 320.639L276.495 317.288C276.495 317.288 272.08 319.569 271.186 317.568C270.292 315.558 272.92 314.818 272.92 314.818C272.92 314.818 270.475 312.498 272.715 311.488C274.955 310.477 277.658 313.898 277.658 313.898L286.597 316.778Z" fill="#FFC3AA"/>
<path d="M291.842 291.025C291.842 291.025 294.286 288.745 296.365 290.325C298.443 291.905 294.62 293.295 294.62 293.295C294.62 293.295 296.828 295.306 295.137 296.706C293.414 298.136 291.152 294.886 291.152 294.886L281.74 291.535C281.74 291.535 277.324 293.815 276.431 291.815C275.537 289.805 278.164 289.065 278.164 289.065C278.164 289.065 275.72 286.745 277.96 285.734C280.2 284.724 282.903 288.145 282.903 288.145L291.842 291.025Z" fill="#FFC3AA"/>
<path d="M313.38 288.695C313.38 288.695 316.633 289.645 316.084 292.035C315.545 294.436 312.508 291.975 312.508 291.975C312.508 291.975 311.625 294.676 309.547 293.945C307.425 293.205 309.45 289.905 309.45 289.905L308.319 280.774C308.319 280.774 304.173 278.244 305.648 276.603C307.123 274.963 309.008 276.753 309.008 276.753C309.008 276.753 310.074 273.723 312.034 275.083C313.994 276.443 312.013 280.174 312.013 280.174L313.38 288.695Z" fill="#FFC3AA"/>
<path d="M310.15 310.938C310.15 310.938 312.551 313.258 310.796 315.158C309.04 317.048 307.64 313.468 307.64 313.468C307.64 313.468 305.422 315.468 303.957 313.878C302.46 312.248 306.003 310.227 306.003 310.227L309.816 301.556C309.816 301.556 307.457 297.406 309.633 296.616C311.808 295.826 312.551 298.286 312.551 298.286C312.551 298.286 315.104 296.066 316.137 298.176C317.171 300.276 313.424 302.707 313.424 302.707L310.15 310.938Z" fill="#FFC3AA"/>
<path d="M310.58 321.409C310.58 321.409 311.485 324.519 308.976 325.399C306.456 326.279 307.08 322.509 307.08 322.509C307.08 322.509 304.097 323.279 303.634 321.219C303.16 319.119 307.317 318.929 307.317 318.929L315.136 313.018C315.136 313.018 315.211 308.327 317.527 308.607C319.842 308.887 319.228 311.368 319.228 311.368C319.228 311.368 322.61 310.557 322.437 312.868C322.265 315.178 317.72 315.638 317.72 315.638L310.58 321.409Z" fill="#FFC3AA"/>
<path d="M299.143 318.528C299.143 318.528 301.502 320.809 299.778 322.669C298.055 324.529 296.677 321.009 296.677 321.009C296.677 321.009 294.502 322.979 293.058 321.409C291.594 319.809 295.072 317.818 295.072 317.818L298.809 309.307C298.809 309.307 296.494 305.237 298.637 304.457C300.78 303.687 301.502 306.097 301.502 306.097C301.502 306.097 304 303.927 305.023 305.987C306.046 308.047 302.363 310.437 302.363 310.437L299.143 318.528Z" fill="#FFC3AA"/>
<path d="M318.431 262.302H273.297V270.133H318.431V262.302Z" fill="#283FB9"/>
<path d="M275.246 262.302V270.132" stroke="white" stroke-width="0.3581" stroke-miterlimit="10" stroke-linecap="round" stroke-linejoin="round"/>
<path d="M277.615 262.302V270.132" stroke="white" stroke-width="0.3581" stroke-miterlimit="10" stroke-linecap="round" stroke-linejoin="round"/>
<path d="M279.984 262.302V270.132" stroke="white" stroke-width="0.3581" stroke-miterlimit="10" stroke-linecap="round" stroke-linejoin="round"/>
<path d="M282.354 262.302V270.132" stroke="white" stroke-width="0.3581" stroke-miterlimit="10" stroke-linecap="round" stroke-linejoin="round"/>
<path d="M284.723 262.302V270.132" stroke="white" stroke-width="0.3581" stroke-miterlimit="10" stroke-linecap="round" stroke-linejoin="round"/>
<path d="M287.092 262.302V270.132" stroke="white" stroke-width="0.3581" stroke-miterlimit="10" stroke-linecap="round" stroke-linejoin="round"/>
<path d="M289.461 262.302V270.132" stroke="white" stroke-width="0.3581" stroke-miterlimit="10" stroke-linecap="round" stroke-linejoin="round"/>
<path d="M291.842 262.302V270.132" stroke="white" stroke-width="0.3581" stroke-miterlimit="10" stroke-linecap="round" stroke-linejoin="round"/>
<path d="M294.211 262.302V270.132" stroke="white" stroke-width="0.3581" stroke-miterlimit="10" stroke-linecap="round" stroke-linejoin="round"/>
<path d="M296.58 262.302V270.132" stroke="white" stroke-width="0.3581" stroke-miterlimit="10" stroke-linecap="round" stroke-linejoin="round"/>
<path d="M298.949 262.302V270.132" stroke="white" stroke-width="0.3581" stroke-miterlimit="10" stroke-linecap="round" stroke-linejoin="round"/>
<path d="M301.319 262.302V270.132" stroke="white" stroke-width="0.3581" stroke-miterlimit="10" stroke-linecap="round" stroke-linejoin="round"/>
<path d="M303.688 262.302V270.132" stroke="white" stroke-width="0.3581" stroke-miterlimit="10" stroke-linecap="round" stroke-linejoin="round"/>
<path d="M306.057 262.302V270.132" stroke="white" stroke-width="0.3581" stroke-miterlimit="10" stroke-linecap="round" stroke-linejoin="round"/>
<path d="M308.426 262.302V270.132" stroke="white" stroke-width="0.3581" stroke-miterlimit="10" stroke-linecap="round" stroke-linejoin="round"/>
<path d="M310.796 262.302V270.132" stroke="white" stroke-width="0.3581" stroke-miterlimit="10" stroke-linecap="round" stroke-linejoin="round"/>
<path d="M313.165 262.302V270.132" stroke="white" stroke-width="0.3581" stroke-miterlimit="10" stroke-linecap="round" stroke-linejoin="round"/>
<path d="M315.534 262.302V270.132" stroke="white" stroke-width="0.3581" stroke-miterlimit="10" stroke-linecap="round" stroke-linejoin="round"/>
</g>
<defs>
<linearGradient id="paint0_linear_242_4070" x1="230.468" y1="97.5215" x2="209.311" y2="84.9052" gradientUnits="userSpaceOnUse">
<stop offset="0.0112" stop-color="#FFC3AA" stop-opacity="0"/>
<stop offset="1" stop-color="#FF7171" stop-opacity="0.5"/>
</linearGradient>
<linearGradient id="paint1_linear_242_4070" x1="196.333" y1="99.218" x2="183.831" y2="81.875" gradientUnits="userSpaceOnUse">
<stop offset="0.0112" stop-color="#FFC3AA" stop-opacity="0"/>
<stop offset="1" stop-color="#FF7171" stop-opacity="0.5"/>
</linearGradient>
<linearGradient id="paint2_linear_242_4070" x1="72.3703" y1="118.194" x2="72.3703" y2="313.753" gradientUnits="userSpaceOnUse">
<stop stop-color="#FFFEFD"/>
<stop offset="1" stop-color="#E9E9E9"/>
</linearGradient>
<linearGradient id="paint3_linear_242_4070" x1="136.256" y1="91.0314" x2="136.256" y2="190.443" gradientUnits="userSpaceOnUse">
<stop stop-color="#FFFEFD"/>
<stop offset="1" stop-color="#E9E9E9"/>
</linearGradient>
<clipPath id="clip0_242_4070">
<rect width="347" height="327" fill="white"/>
</clipPath>
</defs>
</svg>
