<svg width="352" height="301" viewBox="0 0 352 301" fill="none" xmlns="http://www.w3.org/2000/svg">
<g clip-path="url(#clip0_246_5912)">
<path d="M310.425 24.2467H221.103C221.103 24.2467 229.956 0 243.589 0C257.223 0 261.487 16.7349 261.487 16.7349C261.487 16.7349 270.681 7.64347 278.238 7.64347C285.794 7.64347 292.361 19.6571 292.361 19.6571C292.361 19.6571 303.035 13.1984 310.425 24.2467Z" fill="#F67400"/>
<path opacity="0.5" d="M352.062 50.1171H310.321C310.321 50.1171 319.646 36.5765 326.993 36.5765C334.339 36.5765 336.511 45.6065 336.511 45.6065C336.511 45.6065 341.694 41.3942 346.502 42.1489C351.309 42.8948 352.062 50.1171 352.062 50.1171Z" fill="#F67400"/>
<path opacity="0.5" d="M267.406 100.497H225.665C225.665 100.497 234.99 86.9564 242.337 86.9564C249.683 86.9564 251.855 95.9864 251.855 95.9864C251.855 95.9864 257.039 91.7742 261.846 92.5288C266.653 93.2748 267.406 100.497 267.406 100.497Z" fill="#F67400"/>
<path d="M81.3015 110.905H0C0 110.905 11.1379 85.9912 23.0464 84.438C34.9548 82.8847 40.6551 102.946 40.6551 102.946C40.6551 102.946 48.3343 95.8549 54.3761 95.8549C60.4179 95.8549 65.0762 105.201 65.0762 105.201C65.0762 105.201 77.1598 98.7947 81.3015 110.905Z" fill="#F67400"/>
<path opacity="0.5" d="M118.437 37.6908H63.5176C63.5176 37.6908 72.948 19.6396 83.184 19.3763C93.4201 19.1131 98.7964 33.0398 98.7964 33.0398C98.7964 33.0398 114.715 20.2363 118.437 37.6908Z" fill="#F67400"/>
<path d="M206.682 123.559H174.039V295.068H206.682V123.559Z" fill="#F67400"/>
<path d="M185.457 129.132H179.108V135.678H185.457V129.132Z" fill="#F9AA63"/>
<path d="M193.573 129.132H187.225V135.678H193.573V129.132Z" fill="#F9AA63"/>
<path d="M185.457 140.25H179.108V146.797H185.457V140.25Z" fill="#F9AA63"/>
<path d="M193.573 140.25H187.225V146.797H193.573V140.25Z" fill="#F9AA63"/>
<path d="M185.457 151.369H179.108V157.915H185.457V151.369Z" fill="#F9AA63"/>
<path d="M193.573 151.369H187.225V157.915H193.573V151.369Z" fill="#F9AA63"/>
<path d="M185.457 162.487H179.108V169.034H185.457V162.487Z" fill="#F9AA63"/>
<path d="M193.573 162.487H187.225V169.034H193.573V162.487Z" fill="#F9AA63"/>
<path d="M185.457 173.606H179.108V180.152H185.457V173.606Z" fill="#F9AA63"/>
<path d="M193.573 173.606H187.225V180.153H193.573V173.606Z" fill="#F9AA63"/>
<path d="M185.457 184.724H179.108V191.271H185.457V184.724Z" fill="#F9AA63"/>
<path d="M193.573 184.725H187.225V191.271H193.573V184.725Z" fill="#F9AA63"/>
<path d="M185.457 195.843H179.108V202.39H185.457V195.843Z" fill="#F9AA63"/>
<path d="M193.573 195.843H187.225V202.39H193.573V195.843Z" fill="#F9AA63"/>
<path d="M185.457 206.962H179.108V213.508H185.457V206.962Z" fill="#F9AA63"/>
<path d="M193.573 206.962H187.225V213.508H193.573V206.962Z" fill="#F9AA63"/>
<path d="M185.457 218.08H179.108V224.627H185.457V218.08Z" fill="#F9AA63"/>
<path d="M193.573 218.08H187.225V224.627H193.573V218.08Z" fill="#F9AA63"/>
<path d="M185.457 229.199H179.108V235.745H185.457V229.199Z" fill="#F9AA63"/>
<path d="M193.573 229.199H187.225V235.745H193.573V229.199Z" fill="#F9AA63"/>
<path d="M185.457 240.317H179.108V246.864H185.457V240.317Z" fill="#F9AA63"/>
<path d="M193.573 240.318H187.225V246.864H193.573V240.318Z" fill="#F9AA63"/>
<path d="M185.457 251.436H179.108V257.982H185.457V251.436Z" fill="#F9AA63"/>
<path d="M193.573 251.436H187.225V257.983H193.573V251.436Z" fill="#F9AA63"/>
<path d="M185.457 262.554H179.108V269.101H185.457V262.554Z" fill="#F9AA63"/>
<path d="M193.573 262.555H187.225V269.101H193.573V262.555Z" fill="#F9AA63"/>
<path d="M185.457 273.673H179.108V280.22H185.457V273.673Z" fill="#F9AA63"/>
<path d="M195.274 280.214H201.622V273.667H195.274V280.214Z" fill="#F9AA63"/>
<path d="M195.274 269.096H201.622V262.549H195.274V269.096Z" fill="#F9AA63"/>
<path d="M195.274 257.978H201.622V251.431H195.274V257.978Z" fill="#F9AA63"/>
<path d="M195.274 246.86H201.622V240.313H195.274V246.86Z" fill="#F9AA63"/>
<path d="M195.274 235.742H201.622V229.195H195.274V235.742Z" fill="#F9AA63"/>
<path d="M195.274 224.624H201.622V218.077H195.274V224.624Z" fill="#F9AA63"/>
<path d="M195.274 213.506H201.622V206.959H195.274V213.506Z" fill="#F9AA63"/>
<path d="M195.274 202.388H201.622V195.841H195.274V202.388Z" fill="#F9AA63"/>
<path d="M195.274 191.27H201.622V184.723H195.274V191.27Z" fill="#F9AA63"/>
<path d="M195.274 180.152H201.622V173.605H195.274V180.152Z" fill="#F9AA63"/>
<path d="M195.274 169.034H201.622V162.487H195.274V169.034Z" fill="#F9AA63"/>
<path d="M195.274 157.916H201.622V151.369H195.274V157.916Z" fill="#F9AA63"/>
<path d="M195.274 146.797H201.622V140.251H195.274V146.797Z" fill="#F9AA63"/>
<path d="M195.274 135.679H201.622V129.133H195.274V135.679Z" fill="#F9AA63"/>
<path d="M193.573 273.673H187.225V280.22H193.573V273.673Z" fill="#F9AA63"/>
<path d="M232.434 123.559H206.69V295.068H232.434V123.559Z" fill="#F67400"/>
<path d="M224.526 280.214H229.771V273.667H224.526V280.214Z" fill="#F9AA63"/>
<path d="M217.835 280.214H223.071V273.667H217.835V280.214Z" fill="#F9AA63"/>
<path d="M224.526 269.096H229.771V262.549H224.526V269.096Z" fill="#F9AA63"/>
<path d="M217.835 269.096H223.071V262.549H217.835V269.096Z" fill="#F9AA63"/>
<path d="M224.526 257.978H229.771V251.431H224.526V257.978Z" fill="#F9AA63"/>
<path d="M217.835 257.978H223.071V251.431H217.835V257.978Z" fill="#F9AA63"/>
<path d="M224.526 246.86H229.771V240.313H224.526V246.86Z" fill="#F9AA63"/>
<path d="M217.835 246.86H223.071V240.313H217.835V246.86Z" fill="#F9AA63"/>
<path d="M224.526 235.742H229.771V229.195H224.526V235.742Z" fill="#F9AA63"/>
<path d="M217.835 235.742H223.071V229.195H217.835V235.742Z" fill="#F9AA63"/>
<path d="M224.526 224.624H229.771V218.077H224.526V224.624Z" fill="#F9AA63"/>
<path d="M217.835 224.624H223.071V218.077H217.835V224.624Z" fill="#F9AA63"/>
<path d="M224.526 213.506H229.771V206.959H224.526V213.506Z" fill="#F9AA63"/>
<path d="M217.835 213.506H223.071V206.959H217.835V213.506Z" fill="#F9AA63"/>
<path d="M224.526 202.388H229.771V195.841H224.526V202.388Z" fill="#F9AA63"/>
<path d="M217.835 202.388H223.071V195.841H217.835V202.388Z" fill="#F9AA63"/>
<path d="M224.526 191.27H229.771V184.723H224.526V191.27Z" fill="#F9AA63"/>
<path d="M217.835 191.27H223.071V184.723H217.835V191.27Z" fill="#F9AA63"/>
<path d="M224.526 180.152H229.771V173.605H224.526V180.152Z" fill="#F9AA63"/>
<path d="M217.835 180.152H223.071V173.605H217.835V180.152Z" fill="#F9AA63"/>
<path d="M224.526 169.034H229.771V162.487H224.526V169.034Z" fill="#F9AA63"/>
<path d="M217.835 169.034H223.071V162.487H217.835V169.034Z" fill="#F9AA63"/>
<path d="M224.526 157.916H229.771V151.369H224.526V157.916Z" fill="#F9AA63"/>
<path d="M217.835 157.916H223.071V151.369H217.835V157.916Z" fill="#F9AA63"/>
<path d="M224.526 146.798H229.771V140.251H224.526V146.798Z" fill="#F9AA63"/>
<path d="M217.835 146.798H223.071V140.251H217.835V146.798Z" fill="#F9AA63"/>
<path d="M224.526 135.679H229.771V129.133H224.526V135.679Z" fill="#F9AA63"/>
<path d="M216.419 129.132H211.182V135.678H216.419V129.132Z" fill="#F9AA63"/>
<path d="M216.419 140.25H211.182V146.797H216.419V140.25Z" fill="#F9AA63"/>
<path d="M216.419 151.369H211.182V157.915H216.419V151.369Z" fill="#F9AA63"/>
<path d="M216.419 162.487H211.182V169.034H216.419V162.487Z" fill="#F9AA63"/>
<path d="M216.419 173.606H211.182V180.152H216.419V173.606Z" fill="#F9AA63"/>
<path d="M216.419 184.724H211.182V191.271H216.419V184.724Z" fill="#F9AA63"/>
<path d="M216.419 195.843H211.182V202.39H216.419V195.843Z" fill="#F9AA63"/>
<path d="M216.419 206.962H211.182V213.508H216.419V206.962Z" fill="#F9AA63"/>
<path d="M216.419 218.08H211.182V224.627H216.419V218.08Z" fill="#F9AA63"/>
<path d="M216.419 229.199H211.182V235.745H216.419V229.199Z" fill="#F9AA63"/>
<path d="M216.419 240.317H211.182V246.864H216.419V240.317Z" fill="#F9AA63"/>
<path d="M216.419 251.436H211.182V257.982H216.419V251.436Z" fill="#F9AA63"/>
<path d="M216.419 262.555H211.182V269.101H216.419V262.555Z" fill="#F9AA63"/>
<path d="M216.419 273.673H211.182V280.22H216.419V273.673Z" fill="#F9AA63"/>
<path d="M217.835 135.679H223.071V129.133H217.835V135.679Z" fill="#F9AA63"/>
<path d="M89.3137 119.821H55.2607V295.077H89.3137V119.821Z" fill="#F67400"/>
<path d="M89.3133 116.328H54.4373V119.821H89.3133V116.328Z" fill="#E77005"/>
<path d="M61.7837 124.963H58.3337V295.068H61.7837V124.963Z" fill="white" fill-opacity="0.39"/>
<path d="M67.896 124.963H64.446V295.068H67.896V124.963Z" fill="white" fill-opacity="0.39"/>
<path d="M74.0073 124.963H70.5574V295.068H74.0073V124.963Z" fill="white" fill-opacity="0.39"/>
<path d="M80.1196 124.963H76.6697V295.068H80.1196V124.963Z" fill="white" fill-opacity="0.39"/>
<path d="M86.231 124.963H82.781V295.068H86.231V124.963Z" fill="white" fill-opacity="0.39"/>
<path d="M61.7837 129.369H58.3337V136.257H61.7837V129.369Z" fill="#F67400"/>
<path d="M67.896 129.369H64.446V136.257H67.896V129.369Z" fill="#F67400"/>
<path d="M74.0073 129.369H70.5574V136.257H74.0073V129.369Z" fill="#F67400"/>
<path d="M80.1196 129.369H76.6697V136.257H80.1196V129.369Z" fill="#F67400"/>
<path d="M86.231 129.369H82.781V136.257H86.231V129.369Z" fill="#F67400"/>
<path d="M61.7837 140.566H58.3337V147.455H61.7837V140.566Z" fill="#F67400"/>
<path d="M67.896 140.566H64.446V147.455H67.896V140.566Z" fill="#F67400"/>
<path d="M74.0073 140.566H70.5574V147.455H74.0073V140.566Z" fill="#F67400"/>
<path d="M80.1196 140.566H76.6697V147.455H80.1196V140.566Z" fill="#F67400"/>
<path d="M86.231 140.566H82.781V147.455H86.231V140.566Z" fill="#F67400"/>
<path d="M61.7837 151.764H58.3337V158.652H61.7837V151.764Z" fill="#F67400"/>
<path d="M67.896 151.764H64.446V158.652H67.896V151.764Z" fill="#F67400"/>
<path d="M74.0073 151.764H70.5574V158.652H74.0073V151.764Z" fill="#F67400"/>
<path d="M80.1196 151.764H76.6697V158.652H80.1196V151.764Z" fill="#F67400"/>
<path d="M86.231 151.764H82.781V158.652H86.231V151.764Z" fill="#F67400"/>
<path d="M61.7837 162.961H58.3337V169.85H61.7837V162.961Z" fill="#F67400"/>
<path d="M67.896 162.961H64.446V169.85H67.896V162.961Z" fill="#F67400"/>
<path d="M74.0073 162.961H70.5574V169.85H74.0073V162.961Z" fill="#F67400"/>
<path d="M80.1196 162.961H76.6697V169.85H80.1196V162.961Z" fill="#F67400"/>
<path d="M86.231 162.961H82.781V169.85H86.231V162.961Z" fill="#F67400"/>
<path d="M61.7837 174.159H58.3337V181.048H61.7837V174.159Z" fill="#F67400"/>
<path d="M67.896 174.159H64.446V181.048H67.896V174.159Z" fill="#F67400"/>
<path d="M74.0073 174.159H70.5574V181.048H74.0073V174.159Z" fill="#F67400"/>
<path d="M80.1196 174.159H76.6697V181.048H80.1196V174.159Z" fill="#F67400"/>
<path d="M86.231 174.159H82.781V181.048H86.231V174.159Z" fill="#F67400"/>
<path d="M61.7837 185.348H58.3337V192.236H61.7837V185.348Z" fill="#F67400"/>
<path d="M67.896 185.348H64.446V192.236H67.896V185.348Z" fill="#F67400"/>
<path d="M74.0073 185.348H70.5574V192.236H74.0073V185.348Z" fill="#F67400"/>
<path d="M80.1196 185.348H76.6697V192.236H80.1196V185.348Z" fill="#F67400"/>
<path d="M86.231 185.348H82.781V192.236H86.231V185.348Z" fill="#F67400"/>
<path d="M61.7837 196.545H58.3337V203.434H61.7837V196.545Z" fill="#F67400"/>
<path d="M67.896 196.545H64.446V203.434H67.896V196.545Z" fill="#F67400"/>
<path d="M74.0073 196.545H70.5574V203.434H74.0073V196.545Z" fill="#F67400"/>
<path d="M80.1196 196.545H76.6697V203.434H80.1196V196.545Z" fill="#F67400"/>
<path d="M86.231 196.545H82.781V203.434H86.231V196.545Z" fill="#F67400"/>
<path d="M61.7837 207.743H58.3337V214.631H61.7837V207.743Z" fill="#F67400"/>
<path d="M67.896 207.743H64.446V214.631H67.896V207.743Z" fill="#F67400"/>
<path d="M74.0073 207.743H70.5574V214.631H74.0073V207.743Z" fill="#F67400"/>
<path d="M80.1196 207.743H76.6697V214.631H80.1196V207.743Z" fill="#F67400"/>
<path d="M86.231 207.743H82.781V214.631H86.231V207.743Z" fill="#F67400"/>
<path d="M61.7837 218.94H58.3337V225.829H61.7837V218.94Z" fill="#F67400"/>
<path d="M67.896 218.94H64.446V225.829H67.896V218.94Z" fill="#F67400"/>
<path d="M74.0073 218.94H70.5574V225.829H74.0073V218.94Z" fill="#F67400"/>
<path d="M80.1196 218.94H76.6697V225.829H80.1196V218.94Z" fill="#F67400"/>
<path d="M86.231 218.94H82.781V225.829H86.231V218.94Z" fill="#F67400"/>
<path d="M61.7837 230.138H58.3337V237.027H61.7837V230.138Z" fill="#F67400"/>
<path d="M67.896 230.138H64.446V237.027H67.896V230.138Z" fill="#F67400"/>
<path d="M74.0073 230.138H70.5574V237.027H74.0073V230.138Z" fill="#F67400"/>
<path d="M80.1196 230.138H76.6697V237.027H80.1196V230.138Z" fill="#F67400"/>
<path d="M86.231 230.138H82.781V237.027H86.231V230.138Z" fill="#F67400"/>
<path d="M61.7837 241.335H58.3337V248.224H61.7837V241.335Z" fill="#F67400"/>
<path d="M67.896 241.335H64.446V248.224H67.896V241.335Z" fill="#F67400"/>
<path d="M74.0073 241.335H70.5574V248.224H74.0073V241.335Z" fill="#F67400"/>
<path d="M80.1196 241.335H76.6697V248.224H80.1196V241.335Z" fill="#F67400"/>
<path d="M86.231 241.335H82.781V248.224H86.231V241.335Z" fill="#F67400"/>
<path d="M61.7837 252.524H58.3337V259.413H61.7837V252.524Z" fill="#F67400"/>
<path d="M67.896 252.524H64.446V259.413H67.896V252.524Z" fill="#F67400"/>
<path d="M74.0073 252.524H70.5574V259.413H74.0073V252.524Z" fill="#F67400"/>
<path d="M80.1196 252.524H76.6697V259.413H80.1196V252.524Z" fill="#F67400"/>
<path d="M86.231 252.524H82.781V259.413H86.231V252.524Z" fill="#F67400"/>
<path d="M61.7837 263.722H58.3337V270.61H61.7837V263.722Z" fill="#F67400"/>
<path d="M67.896 263.722H64.446V270.61H67.896V263.722Z" fill="#F67400"/>
<path d="M74.0073 263.722H70.5574V270.61H74.0073V263.722Z" fill="#F67400"/>
<path d="M80.1196 263.722H76.6697V270.61H80.1196V263.722Z" fill="#F67400"/>
<path d="M86.231 263.722H82.781V270.61H86.231V263.722Z" fill="#F67400"/>
<path d="M61.7837 274.919H58.3337V295.068H61.7837V274.919Z" fill="#F67400"/>
<path d="M67.896 274.919H64.446V295.068H67.896V274.919Z" fill="#F67400"/>
<path d="M74.0073 274.919H70.5574V295.068H74.0073V274.919Z" fill="#F67400"/>
<path d="M80.1196 274.919H76.6697V295.068H80.1196V274.919Z" fill="#F67400"/>
<path d="M86.231 274.919H82.781V295.068H86.231V274.919Z" fill="#F67400"/>
<path d="M111.178 119.821H89.3132V295.077H111.178V119.821Z" fill="#F67400"/>
<path d="M112.123 116.328H89.3132V119.821H112.123V116.328Z" fill="#E77005"/>
<path d="M95.845 124.963H92.395V295.068H95.845V124.963Z" fill="#F9AA63"/>
<path d="M101.957 124.963H98.5073V295.068H101.957V124.963Z" fill="#F9AA63"/>
<path d="M108.069 124.963H104.619V295.068H108.069V124.963Z" fill="#F9AA63"/>
<path d="M95.845 129.368H92.395V136.257H95.845V129.368Z" fill="#F9AA63"/>
<path d="M101.957 129.368H98.5073V136.257H101.957V129.368Z" fill="#F9AA63"/>
<path d="M108.069 129.368H104.619V136.257H108.069V129.368Z" fill="#F9AA63"/>
<path d="M95.845 140.566H92.395V147.455H95.845V140.566Z" fill="#F9AA63"/>
<path d="M101.957 140.566H98.5073V147.455H101.957V140.566Z" fill="#F9AA63"/>
<path d="M108.069 140.566H104.619V147.455H108.069V140.566Z" fill="#F9AA63"/>
<path d="M95.845 151.764H92.395V158.652H95.845V151.764Z" fill="#F9AA63"/>
<path d="M101.957 151.764H98.5073V158.652H101.957V151.764Z" fill="#F9AA63"/>
<path d="M108.069 151.764H104.619V158.652H108.069V151.764Z" fill="#F9AA63"/>
<path d="M95.845 162.961H92.395V169.85H95.845V162.961Z" fill="#F9AA63"/>
<path d="M101.957 162.961H98.5073V169.85H101.957V162.961Z" fill="#F9AA63"/>
<path d="M108.069 162.961H104.619V169.85H108.069V162.961Z" fill="#F9AA63"/>
<path d="M95.845 174.159H92.395V181.047H95.845V174.159Z" fill="#F9AA63"/>
<path d="M101.957 174.159H98.5073V181.047H101.957V174.159Z" fill="#F9AA63"/>
<path d="M108.069 174.159H104.619V181.047H108.069V174.159Z" fill="#F9AA63"/>
<path d="M95.845 185.347H92.395V192.236H95.845V185.347Z" fill="#F9AA63"/>
<path d="M101.957 185.347H98.5073V192.236H101.957V185.347Z" fill="#F9AA63"/>
<path d="M108.069 185.347H104.619V192.236H108.069V185.347Z" fill="#F9AA63"/>
<path d="M95.845 196.545H92.395V203.434H95.845V196.545Z" fill="#F9AA63"/>
<path d="M101.957 196.545H98.5073V203.434H101.957V196.545Z" fill="#F9AA63"/>
<path d="M108.069 196.545H104.619V203.434H108.069V196.545Z" fill="#F9AA63"/>
<path d="M95.845 207.742H92.395V214.631H95.845V207.742Z" fill="#F9AA63"/>
<path d="M101.957 207.742H98.5073V214.631H101.957V207.742Z" fill="#F9AA63"/>
<path d="M108.069 207.742H104.619V214.631H108.069V207.742Z" fill="#F9AA63"/>
<path d="M95.845 218.94H92.395V225.829H95.845V218.94Z" fill="#F9AA63"/>
<path d="M101.957 218.94H98.5073V225.829H101.957V218.94Z" fill="#F9AA63"/>
<path d="M108.069 218.94H104.619V225.829H108.069V218.94Z" fill="#F9AA63"/>
<path d="M95.845 230.138H92.395V237.026H95.845V230.138Z" fill="#F9AA63"/>
<path d="M101.957 230.138H98.5073V237.026H101.957V230.138Z" fill="#F9AA63"/>
<path d="M108.069 230.138H104.619V237.026H108.069V230.138Z" fill="#F9AA63"/>
<path d="M95.845 241.335H92.395V248.224H95.845V241.335Z" fill="#F9AA63"/>
<path d="M101.957 241.335H98.5073V248.224H101.957V241.335Z" fill="#F9AA63"/>
<path d="M108.069 241.335H104.619V248.224H108.069V241.335Z" fill="#F9AA63"/>
<path d="M95.845 252.524H92.395V259.413H95.845V252.524Z" fill="#F9AA63"/>
<path d="M101.957 252.524H98.5073V259.413H101.957V252.524Z" fill="#F9AA63"/>
<path d="M108.069 252.524H104.619V259.413H108.069V252.524Z" fill="#F9AA63"/>
<path d="M95.845 263.721H92.395V270.61H95.845V263.721Z" fill="#F9AA63"/>
<path d="M101.957 263.721H98.5073V270.61H101.957V263.721Z" fill="#F9AA63"/>
<path d="M108.069 263.721H104.619V270.61H108.069V263.721Z" fill="#F9AA63"/>
<path d="M95.845 274.919H92.395V295.068H95.845V274.919Z" fill="#F9AA63"/>
<path d="M101.957 274.919H98.5073V295.068H101.957V274.919Z" fill="#F9AA63"/>
<path d="M108.069 274.919H104.619V295.068H108.069V274.919Z" fill="#F9AA63"/>
<path d="M39.8932 172.307H7.59155V295.068H39.8932V172.307Z" fill="#E77005"/>
<path d="M39.8932 164.164H12.1885V172.307H39.8932V164.164Z" fill="#E77005"/>
<path d="M36.3558 176.555H11.1379V268.329H36.3558V176.555Z" fill="#F9AA63" fill-opacity="0.24"/>
<path d="M36.3558 185.313H11.1379V187.48H36.3558V185.313Z" fill="#F9AA63"/>
<path d="M36.3558 194.299H11.1379V196.466H36.3558V194.299Z" fill="#F9AA63"/>
<path d="M36.3558 203.276H11.1379V205.444H36.3558V203.276Z" fill="#F9AA63"/>
<path d="M36.3558 212.262H11.1379V214.43H36.3558V212.262Z" fill="#F9AA63"/>
<path d="M36.3558 221.248H11.1379V223.416H36.3558V221.248Z" fill="#F9AA63"/>
<path d="M36.3558 230.226H11.1379V232.393H36.3558V230.226Z" fill="#F9AA63"/>
<path d="M36.3558 239.212H11.1379V241.379H36.3558V239.212Z" fill="#F9AA63"/>
<path d="M36.3558 248.198H11.1379V250.365H36.3558V248.198Z" fill="#F9AA63"/>
<path d="M36.3558 257.175H11.1379V259.343H36.3558V257.175Z" fill="#F9AA63"/>
<path d="M36.3558 266.161H11.1379V268.329H36.3558V266.161Z" fill="#F9AA63"/>
<path d="M60.1197 172.307H39.8928V295.068H60.1197V172.307Z" fill="#E77005"/>
<path d="M57.09 164.164H39.8928V172.307H57.09V164.164Z" fill="#E77005"/>
<path d="M58.2376 176.555H42.6865V268.329H58.2376V176.555Z" fill="#F78118"/>
<path d="M58.2376 185.313H42.6865V187.48H58.2376V185.313Z" fill="#F9AA63"/>
<path d="M58.2376 194.299H42.6865V196.466H58.2376V194.299Z" fill="#F9AA63"/>
<path d="M58.2376 203.276H42.6865V205.444H58.2376V203.276Z" fill="#F9AA63"/>
<path d="M58.2376 212.262H42.6865V214.43H58.2376V212.262Z" fill="#F9AA63"/>
<path d="M58.2376 221.248H42.6865V223.416H58.2376V221.248Z" fill="#F9AA63"/>
<path d="M58.2376 230.226H42.6865V232.393H58.2376V230.226Z" fill="#F9AA63"/>
<path d="M58.2376 239.212H42.6865V241.379H58.2376V239.212Z" fill="#F9AA63"/>
<path d="M58.2376 248.198H42.6865V250.366H58.2376V248.198Z" fill="#F9AA63"/>
<path d="M58.2376 257.175H42.6865V259.343H58.2376V257.175Z" fill="#F9AA63"/>
<path d="M58.2376 266.162H42.6865V268.329H58.2376V266.162Z" fill="#F9AA63"/>
<path d="M313.446 174.378H296.196V194.799H313.446V174.378Z" fill="#E77005"/>
<path d="M324.383 174.378H313.446V195.553H324.383V174.378Z" fill="#F07F19"/>
<path d="M325.118 183.391H314.26V195.545H325.118V183.391Z" fill="#E77005"/>
<path d="M331.878 183.391H325.11V195.545H331.878V183.391Z" fill="#F07F19"/>
<path d="M317.483 193.474H289.585V295.077H317.483V193.474Z" fill="#F67400"/>
<path d="M301.546 197.835H292.772V201.424H301.546V197.835Z" fill="white" fill-opacity="0.39"/>
<path d="M312.762 197.835H303.989V201.424H312.762V197.835Z" fill="white" fill-opacity="0.39"/>
<path d="M301.546 203.934H292.772V207.523H301.546V203.934Z" fill="white" fill-opacity="0.39"/>
<path d="M312.762 203.934H303.989V207.524H312.762V203.934Z" fill="white" fill-opacity="0.39"/>
<path d="M301.546 210.033H292.772V213.622H301.546V210.033Z" fill="white" fill-opacity="0.39"/>
<path d="M312.762 210.033H303.989V213.622H312.762V210.033Z" fill="white" fill-opacity="0.39"/>
<path d="M301.546 216.132H292.772V219.721H301.546V216.132Z" fill="white" fill-opacity="0.39"/>
<path d="M312.762 216.132H303.989V219.722H312.762V216.132Z" fill="white" fill-opacity="0.39"/>
<path d="M301.546 222.231H292.772V225.82H301.546V222.231Z" fill="white" fill-opacity="0.39"/>
<path d="M312.762 222.231H303.989V225.82H312.762V222.231Z" fill="white" fill-opacity="0.39"/>
<path d="M301.546 228.33H292.772V231.919H301.546V228.33Z" fill="white" fill-opacity="0.39"/>
<path d="M312.762 228.33H303.989V231.919H312.762V228.33Z" fill="white" fill-opacity="0.39"/>
<path d="M301.546 234.429H292.772V238.018H301.546V234.429Z" fill="white" fill-opacity="0.39"/>
<path d="M312.762 234.429H303.989V238.019H312.762V234.429Z" fill="white" fill-opacity="0.39"/>
<path d="M301.546 240.528H292.772V244.117H301.546V240.528Z" fill="white" fill-opacity="0.39"/>
<path d="M312.762 240.528H303.989V244.117H312.762V240.528Z" fill="white" fill-opacity="0.39"/>
<path d="M301.546 246.627H292.772V250.216H301.546V246.627Z" fill="white" fill-opacity="0.39"/>
<path d="M312.762 246.627H303.989V250.216H312.762V246.627Z" fill="white" fill-opacity="0.39"/>
<path d="M301.546 252.726H292.772V256.315H301.546V252.726Z" fill="white" fill-opacity="0.39"/>
<path d="M312.762 252.726H303.989V256.315H312.762V252.726Z" fill="white" fill-opacity="0.39"/>
<path d="M301.546 258.816H292.772V262.405H301.546V258.816Z" fill="white" fill-opacity="0.39"/>
<path d="M312.762 258.816H303.989V262.405H312.762V258.816Z" fill="white" fill-opacity="0.39"/>
<path d="M301.546 264.915H292.772V268.504H301.546V264.915Z" fill="white" fill-opacity="0.39"/>
<path d="M312.762 264.915H303.989V268.504H312.762V264.915Z" fill="white" fill-opacity="0.39"/>
<path d="M301.546 271.014H292.772V274.603H301.546V271.014Z" fill="white" fill-opacity="0.39"/>
<path d="M312.762 271.014H303.989V274.604H312.762V271.014Z" fill="white" fill-opacity="0.39"/>
<path d="M301.546 277.113H292.772V280.702H301.546V277.113Z" fill="white" fill-opacity="0.39"/>
<path d="M312.762 277.113H303.989V280.702H312.762V277.113Z" fill="white" fill-opacity="0.39"/>
<path d="M340.073 193.473H317.474V295.076H340.073V193.473Z" fill="#F67400"/>
<path d="M330.615 280.709H337.812V277.12H330.615V280.709Z" fill="#F9AA63"/>
<path d="M321.401 280.709H328.598V277.12H321.401V280.709Z" fill="#F9AA63"/>
<path d="M330.615 274.611H337.812V271.022H330.615V274.611Z" fill="#F9AA63"/>
<path d="M321.401 274.611H328.598V271.022H321.401V274.611Z" fill="#F9AA63"/>
<path d="M330.615 268.514H337.812V264.925H330.615V268.514Z" fill="#F9AA63"/>
<path d="M321.401 268.514H328.598V264.925H321.401V268.514Z" fill="#F9AA63"/>
<path d="M330.615 262.416H337.812V258.827H330.615V262.416Z" fill="#F9AA63"/>
<path d="M321.401 262.416H328.598V258.827H321.401V262.416Z" fill="#F9AA63"/>
<path d="M330.615 256.31H337.812V252.72H330.615V256.31Z" fill="#F9AA63"/>
<path d="M321.401 256.31H328.598V252.72H321.401V256.31Z" fill="#F9AA63"/>
<path d="M330.615 250.212H337.812V246.623H330.615V250.212Z" fill="#F9AA63"/>
<path d="M321.401 250.212H328.598V246.623H321.401V250.212Z" fill="#F9AA63"/>
<path d="M330.615 244.115H337.812V240.526H330.615V244.115Z" fill="#F9AA63"/>
<path d="M321.401 244.115H328.598V240.526H321.401V244.115Z" fill="#F9AA63"/>
<path d="M330.615 238.017H337.812V234.428H330.615V238.017Z" fill="#F9AA63"/>
<path d="M321.401 238.017H328.598V234.428H321.401V238.017Z" fill="#F9AA63"/>
<path d="M330.615 231.92H337.812V228.331H330.615V231.92Z" fill="#F9AA63"/>
<path d="M321.401 231.92H328.598V228.331H321.401V231.92Z" fill="#F9AA63"/>
<path d="M330.615 225.822H337.812V222.233H330.615V225.822Z" fill="#F9AA63"/>
<path d="M321.401 225.822H328.598V222.233H321.401V225.822Z" fill="#F9AA63"/>
<path d="M330.615 219.725H337.812V216.135H330.615V219.725Z" fill="#F9AA63"/>
<path d="M321.401 219.725H328.598V216.135H321.401V219.725Z" fill="#F9AA63"/>
<path d="M330.615 213.627H337.812V210.038H330.615V213.627Z" fill="#F9AA63"/>
<path d="M321.401 213.627H328.598V210.038H321.401V213.627Z" fill="#F9AA63"/>
<path d="M330.615 207.53H337.812V203.941H330.615V207.53Z" fill="#F9AA63"/>
<path d="M321.401 207.53H328.598V203.941H321.401V207.53Z" fill="#F9AA63"/>
<path d="M330.615 201.432H337.812V197.843H330.615V201.432Z" fill="#F9AA63"/>
<path d="M321.401 201.432H328.598V197.843H321.401V201.432Z" fill="#F9AA63"/>
<path d="M126.947 174.378H109.697V194.799H126.947V174.378Z" fill="#E77005"/>
<path d="M137.884 174.378H126.947V195.553H137.884V174.378Z" fill="#F17F19"/>
<path d="M138.619 183.391H127.761V195.545H138.619V183.391Z" fill="#E77005"/>
<path d="M145.388 183.391H138.619V195.545H145.388V183.391Z" fill="#F17F19"/>
<path d="M130.984 193.474H103.086V295.076H130.984V193.474Z" fill="#F67400"/>
<path d="M115.047 197.835H106.273V201.424H115.047V197.835Z" fill="#F9AA63"/>
<path d="M126.263 197.835H117.49V201.424H126.263V197.835Z" fill="#F9AA63"/>
<path d="M115.047 203.934H106.273V207.523H115.047V203.934Z" fill="#F9AA63"/>
<path d="M126.263 203.934H117.49V207.524H126.263V203.934Z" fill="#F9AA63"/>
<path d="M115.047 210.033H106.273V213.622H115.047V210.033Z" fill="#F9AA63"/>
<path d="M126.263 210.033H117.49V213.622H126.263V210.033Z" fill="#F9AA63"/>
<path d="M115.047 216.132H106.273V219.721H115.047V216.132Z" fill="#F9AA63"/>
<path d="M126.263 216.132H117.49V219.721H126.263V216.132Z" fill="#F9AA63"/>
<path d="M115.047 222.231H106.273V225.82H115.047V222.231Z" fill="#F9AA63"/>
<path d="M126.263 222.231H117.49V225.82H126.263V222.231Z" fill="#F9AA63"/>
<path d="M115.047 228.33H106.273V231.919H115.047V228.33Z" fill="#F9AA63"/>
<path d="M126.263 228.33H117.49V231.919H126.263V228.33Z" fill="#F9AA63"/>
<path d="M115.047 234.429H106.273V238.018H115.047V234.429Z" fill="#F9AA63"/>
<path d="M126.263 234.429H117.49V238.018H126.263V234.429Z" fill="#F9AA63"/>
<path d="M115.047 240.528H106.273V244.117H115.047V240.528Z" fill="#F9AA63"/>
<path d="M126.263 240.528H117.49V244.117H126.263V240.528Z" fill="#F9AA63"/>
<path d="M115.047 246.627H106.273V250.216H115.047V246.627Z" fill="#F9AA63"/>
<path d="M126.263 246.627H117.49V250.216H126.263V246.627Z" fill="#F9AA63"/>
<path d="M115.047 252.726H106.273V256.315H115.047V252.726Z" fill="#F9AA63"/>
<path d="M126.263 252.726H117.49V256.315H126.263V252.726Z" fill="#F9AA63"/>
<path d="M115.047 258.816H106.273V262.405H115.047V258.816Z" fill="#F9AA63"/>
<path d="M126.263 258.816H117.49V262.405H126.263V258.816Z" fill="#F9AA63"/>
<path d="M115.047 264.915H106.273V268.504H115.047V264.915Z" fill="#F9AA63"/>
<path d="M126.263 264.915H117.49V268.504H126.263V264.915Z" fill="#F9AA63"/>
<path d="M115.047 271.014H106.273V274.603H115.047V271.014Z" fill="#F9AA63"/>
<path d="M126.263 271.014H117.49V274.603H126.263V271.014Z" fill="#F9AA63"/>
<path d="M115.047 277.113H106.273V280.702H115.047V277.113Z" fill="#F9AA63"/>
<path d="M126.263 277.113H117.49V280.702H126.263V277.113Z" fill="#F9AA63"/>
<path d="M153.574 193.473H130.975V295.076H153.574V193.473Z" fill="#F67400"/>
<path d="M144.119 280.709H151.316V277.12H144.119V280.709Z" fill="#F9AA63"/>
<path d="M134.904 280.709H142.102V277.12H134.904V280.709Z" fill="#F9AA63"/>
<path d="M144.119 274.611H151.316V271.022H144.119V274.611Z" fill="#F9AA63"/>
<path d="M134.904 274.611H142.102V271.022H134.904V274.611Z" fill="#F9AA63"/>
<path d="M144.119 268.514H151.316V264.925H144.119V268.514Z" fill="#F9AA63"/>
<path d="M134.904 268.514H142.102V264.925H134.904V268.514Z" fill="#F9AA63"/>
<path d="M144.119 262.416H151.316V258.827H144.119V262.416Z" fill="#F9AA63"/>
<path d="M134.904 262.416H142.102V258.827H134.904V262.416Z" fill="#F9AA63"/>
<path d="M144.119 256.31H151.316V252.72H144.119V256.31Z" fill="#F9AA63"/>
<path d="M134.904 256.31H142.102V252.72H134.904V256.31Z" fill="#F9AA63"/>
<path d="M144.119 250.212H151.316V246.623H144.119V250.212Z" fill="#F9AA63"/>
<path d="M134.904 250.212H142.102V246.623H134.904V250.212Z" fill="#F9AA63"/>
<path d="M144.119 244.115H151.316V240.525H144.119V244.115Z" fill="#F9AA63"/>
<path d="M134.904 244.115H142.102V240.525H134.904V244.115Z" fill="#F9AA63"/>
<path d="M144.119 238.017H151.316V234.428H144.119V238.017Z" fill="#F9AA63"/>
<path d="M134.904 238.017H142.102V234.428H134.904V238.017Z" fill="#F9AA63"/>
<path d="M144.119 231.92H151.316V228.331H144.119V231.92Z" fill="#F9AA63"/>
<path d="M134.904 231.92H142.102V228.331H134.904V231.92Z" fill="#F9AA63"/>
<path d="M144.119 225.822H151.316V222.233H144.119V225.822Z" fill="#F9AA63"/>
<path d="M134.904 225.822H142.102V222.233H134.904V225.822Z" fill="#F9AA63"/>
<path d="M144.119 219.724H151.316V216.135H144.119V219.724Z" fill="#F9AA63"/>
<path d="M134.904 219.724H142.102V216.135H134.904V219.724Z" fill="#F9AA63"/>
<path d="M144.119 213.627H151.316V210.038H144.119V213.627Z" fill="#F9AA63"/>
<path d="M134.904 213.627H142.102V210.038H134.904V213.627Z" fill="#F9AA63"/>
<path d="M144.119 207.53H151.316V203.94H144.119V207.53Z" fill="#F9AA63"/>
<path d="M134.904 207.53H142.102V203.94H134.904V207.53Z" fill="#F9AA63"/>
<path d="M144.119 201.432H151.316V197.843H144.119V201.432Z" fill="#F9AA63"/>
<path d="M134.904 201.432H142.102V197.843H134.904V201.432Z" fill="#F9AA63"/>
<path d="M261.067 228.865H228.169V295.068H261.067V228.865Z" fill="#E77005"/>
<path d="M239.167 234.596H233.344V238.65H239.167V234.596Z" fill="#F9AA63"/>
<path d="M239.167 243.257H233.344V247.311H239.167V243.257Z" fill="#F9AA63"/>
<path d="M239.167 251.927H233.344V255.982H239.167V251.927Z" fill="#F9AA63"/>
<path d="M239.167 260.589H233.344V264.643H239.167V260.589Z" fill="#F9AA63"/>
<path d="M239.167 269.25H233.344V273.304H239.167V269.25Z" fill="#F9AA63"/>
<path d="M239.167 277.912H233.344V281.966H239.167V277.912Z" fill="#F9AA63"/>
<path d="M239.167 286.573H233.344V290.627H239.167V286.573Z" fill="#F9AA63"/>
<path d="M247.547 234.596H241.724V238.65H247.547V234.596Z" fill="#F9AA63"/>
<path d="M247.547 243.257H241.724V247.312H247.547V243.257Z" fill="#F9AA63"/>
<path d="M247.547 251.927H241.724V255.982H247.547V251.927Z" fill="#F9AA63"/>
<path d="M247.547 260.589H241.724V264.643H247.547V260.589Z" fill="#F9AA63"/>
<path d="M247.547 269.25H241.724V273.305H247.547V269.25Z" fill="#F9AA63"/>
<path d="M247.547 277.911H241.724V281.966H247.547V277.911Z" fill="#F9AA63"/>
<path d="M247.547 286.573H241.724V290.627H247.547V286.573Z" fill="#F9AA63"/>
<path d="M255.901 234.596H250.078V238.65H255.901V234.596Z" fill="#F9AA63"/>
<path d="M255.901 243.257H250.078V247.312H255.901V243.257Z" fill="#F9AA63"/>
<path d="M255.901 251.927H250.078V255.982H255.901V251.927Z" fill="#F9AA63"/>
<path d="M255.901 260.589H250.078V264.643H255.901V260.589Z" fill="#F9AA63"/>
<path d="M255.901 269.25H250.078V273.305H255.901V269.25Z" fill="#F9AA63"/>
<path d="M255.901 277.911H250.078V281.966H255.901V277.911Z" fill="#F9AA63"/>
<path d="M255.901 286.573H250.078V290.627H255.901V286.573Z" fill="#F9AA63"/>
<path d="M261.075 221.968H239.167V228.865H261.075V221.968Z" fill="#E77005"/>
<path d="M261.075 217.694H247.188V221.968H261.075V217.694Z" fill="#E77005"/>
<path d="M284.157 228.865H261.075V295.068H284.157V228.865Z" fill="#E77005"/>
<path d="M277.056 289.982H281.793V285.928H277.056V289.982Z" fill="#F9AA63"/>
<path d="M277.056 281.326H281.793V277.272H277.056V281.326Z" fill="#F9AA63"/>
<path d="M277.056 272.661H281.793V268.606H277.056V272.661Z" fill="#F9AA63"/>
<path d="M277.056 263.996H281.793V259.941H277.056V263.996Z" fill="#F9AA63"/>
<path d="M277.056 255.33H281.793V251.276H277.056V255.33Z" fill="#F9AA63"/>
<path d="M277.056 246.665H281.793V242.611H277.056V246.665Z" fill="#F9AA63"/>
<path d="M277.056 238.009H281.793V233.955H277.056V238.009Z" fill="#F9AA63"/>
<path d="M270.242 289.983H274.979V285.928H270.242V289.983Z" fill="#F9AA63"/>
<path d="M270.242 281.326H274.979V277.272H270.242V281.326Z" fill="#F9AA63"/>
<path d="M270.242 272.661H274.979V268.606H270.242V272.661Z" fill="#F9AA63"/>
<path d="M270.242 263.996H274.979V259.941H270.242V263.996Z" fill="#F9AA63"/>
<path d="M270.242 255.33H274.979V251.276H270.242V255.33Z" fill="#F9AA63"/>
<path d="M270.242 246.665H274.979V242.611H270.242V246.665Z" fill="#F9AA63"/>
<path d="M270.242 238.009H274.979V233.955H270.242V238.009Z" fill="#F9AA63"/>
<path d="M263.435 289.983H268.172V285.928H263.435V289.983Z" fill="#F9AA63"/>
<path d="M263.435 281.326H268.172V277.272H263.435V281.326Z" fill="#F9AA63"/>
<path d="M263.435 272.661H268.173V268.606H263.435V272.661Z" fill="#F9AA63"/>
<path d="M263.435 263.996H268.172V259.941H263.435V263.996Z" fill="#F9AA63"/>
<path d="M263.435 255.33H268.172V251.276H263.435V255.33Z" fill="#F9AA63"/>
<path d="M263.435 246.665H268.172V242.611H263.435V246.665Z" fill="#F9AA63"/>
<path d="M263.435 238.009H268.172V233.955H263.435V238.009Z" fill="#F9AA63"/>
<path d="M280.663 221.968H261.075V228.865H280.663V221.968Z" fill="#F07F19"/>
<path d="M271.688 217.694H261.075V221.968H271.688V217.694Z" fill="#F07F19"/>
<path d="M252.118 39.1738H260.997C241.532 39.1738 225.762 55.2243 225.762 75.0218C225.762 94.8281 241.532 110.879 260.997 110.879H252.118C232.653 110.879 216.883 94.8281 216.883 75.0218C216.883 55.2243 232.653 39.1738 252.118 39.1738Z" fill="#F67400"/>
<g opacity="0.1">
<path d="M252.118 39.1738H260.997C241.532 39.1738 225.762 55.2243 225.762 75.0218C225.762 94.8281 241.532 110.879 260.997 110.879H252.118C232.653 110.879 216.883 94.8281 216.883 75.0218C216.883 55.2243 232.653 39.1738 252.118 39.1738Z" fill="black"/>
</g>
<path d="M260.997 212.622H252.118C287.887 170.85 321.389 125.077 316.468 74.5304C313.272 41.7889 291.092 9.17915 252.118 9.17915H260.997C299.962 9.17915 322.142 41.7889 325.346 74.5304C330.267 125.077 296.775 170.859 260.997 212.622Z" fill="#F67400"/>
<g opacity="0.1">
<path d="M260.997 212.622H252.118C287.887 170.85 321.389 125.077 316.468 74.5304C313.272 41.7889 291.092 9.17915 252.118 9.17915H260.997C299.962 9.17915 322.142 41.7889 325.346 74.5304C330.267 125.077 296.775 170.859 260.997 212.622Z" fill="black"/>
</g>
<path d="M316.468 74.5306C321.397 125.078 287.896 170.859 252.127 212.631C216.402 170.859 182.9 125.078 187.821 74.5306C191.026 41.7892 213.197 9.18816 252.127 9.18816C291.092 9.18816 313.263 41.7892 316.468 74.5306ZM252.118 110.888C271.627 110.888 287.397 94.8371 287.397 75.0308C287.397 55.2333 271.627 39.1829 252.118 39.1829C232.653 39.1829 216.883 55.2333 216.883 75.0308C216.883 94.8371 232.653 110.888 252.118 110.888Z" fill="#F67400"/>
<path d="M1.67236 299.14L45.2608 298.929L88.8493 298.85L176.026 298.71L263.203 298.85L306.792 298.929L350.38 299.14L306.792 299.359L263.203 299.438L176.026 299.578L88.8493 299.438L45.2608 299.359L1.67236 299.14Z" fill="#CF6609"/>
<path d="M350.547 295.068H1.52368V299.14H350.547V295.068Z" fill="#E77005"/>
<path d="M11.6112 295.068C11.7513 295.744 11.7775 296.428 11.7863 297.104C11.7775 297.78 11.7513 298.464 11.6112 299.14C11.4711 298.464 11.4448 297.78 11.436 297.104C11.436 296.428 11.4711 295.752 11.6112 295.068Z" fill="#F67400"/>
<path d="M23.3533 295.068C23.4934 295.744 23.5197 296.428 23.5285 297.104C23.5197 297.78 23.4934 298.464 23.3533 299.14C23.2132 298.464 23.187 297.78 23.1782 297.104C23.187 296.428 23.2132 295.752 23.3533 295.068Z" fill="#F67400"/>
<path d="M35.0955 295.068C35.2356 295.744 35.2619 296.428 35.2707 297.104C35.2619 297.78 35.2356 298.464 35.0955 299.14C34.9554 298.464 34.9292 297.78 34.9204 297.104C34.9292 296.428 34.9642 295.752 35.0955 295.068Z" fill="#F67400"/>
<path d="M46.8463 295.068C46.9864 295.744 47.0126 296.428 47.0214 297.104C47.0126 297.78 46.9864 298.464 46.8463 299.14C46.7062 298.464 46.6799 297.78 46.6711 297.104C46.6711 296.428 46.7062 295.752 46.8463 295.068Z" fill="#F67400"/>
<path d="M58.5887 295.068C58.7288 295.744 58.7551 296.428 58.7638 297.104C58.7551 297.78 58.7288 298.464 58.5887 299.14C58.4486 298.464 58.4223 297.78 58.4136 297.104C58.4136 296.428 58.4486 295.752 58.5887 295.068Z" fill="#F67400"/>
<path d="M70.3299 295.068C70.47 295.744 70.4963 296.428 70.505 297.104C70.4963 297.78 70.47 298.464 70.3299 299.14C70.1898 298.464 70.1635 297.78 70.1548 297.104C70.1635 296.428 70.1898 295.752 70.3299 295.068Z" fill="#F67400"/>
<path d="M82.0721 295.068C82.2122 295.744 82.2385 296.428 82.2472 297.104C82.2385 297.78 82.2122 298.464 82.0721 299.14C81.932 298.464 81.9057 297.78 81.897 297.104C81.9057 296.428 81.9408 295.752 82.0721 295.068Z" fill="#F67400"/>
<path d="M93.8231 295.068C93.9632 295.744 93.9894 296.428 93.9982 297.104C93.9894 297.78 93.9632 298.464 93.8231 299.14C93.683 298.464 93.6567 297.78 93.6479 297.104C93.6479 296.428 93.683 295.752 93.8231 295.068Z" fill="#F67400"/>
<path d="M105.566 295.068C105.706 295.744 105.732 296.428 105.741 297.104C105.732 297.78 105.706 298.464 105.566 299.14C105.425 298.464 105.399 297.78 105.39 297.104C105.39 296.428 105.425 295.752 105.566 295.068Z" fill="#F67400"/>
<path d="M117.307 295.068C117.448 295.744 117.474 296.428 117.483 297.104C117.474 297.78 117.448 298.464 117.307 299.14C117.167 298.464 117.141 297.78 117.132 297.104C117.141 296.428 117.167 295.752 117.307 295.068Z" fill="#F67400"/>
<path d="M129.05 295.068C129.19 295.744 129.216 296.428 129.225 297.104C129.216 297.78 129.19 298.464 129.05 299.14C128.91 298.464 128.883 297.78 128.875 297.104C128.883 296.428 128.918 295.752 129.05 295.068Z" fill="#F67400"/>
<path d="M140.8 295.068C140.94 295.744 140.967 296.428 140.975 297.104C140.967 297.78 140.94 298.464 140.8 299.14C140.66 298.464 140.634 297.78 140.625 297.104C140.625 296.428 140.66 295.752 140.8 295.068Z" fill="#F67400"/>
<path d="M152.543 295.068C152.683 295.744 152.709 296.428 152.718 297.104C152.709 297.78 152.683 298.464 152.543 299.14C152.402 298.464 152.376 297.78 152.367 297.104C152.367 296.428 152.402 295.752 152.543 295.068Z" fill="#F67400"/>
<path d="M164.285 295.068C164.425 295.744 164.451 296.428 164.46 297.104C164.451 297.78 164.425 298.464 164.285 299.14C164.145 298.464 164.119 297.78 164.11 297.104C164.119 296.428 164.145 295.752 164.285 295.068Z" fill="#F67400"/>
<path d="M176.026 295.068C176.166 295.744 176.193 296.428 176.201 297.104C176.193 297.78 176.166 298.464 176.026 299.14C175.886 298.464 175.86 297.78 175.851 297.104C175.86 296.428 175.895 295.752 176.026 295.068Z" fill="#F67400"/>
<path d="M187.778 295.068C187.918 295.744 187.944 296.428 187.953 297.104C187.944 297.78 187.918 298.464 187.778 299.14C187.638 298.464 187.612 297.78 187.603 297.104C187.603 296.428 187.638 295.752 187.778 295.068Z" fill="#F67400"/>
<path d="M199.519 295.068C199.659 295.744 199.686 296.428 199.694 297.104C199.686 297.78 199.659 298.464 199.519 299.14C199.379 298.464 199.353 297.78 199.344 297.104C199.344 296.428 199.379 295.752 199.519 295.068Z" fill="#F67400"/>
<path d="M211.262 295.068C211.402 295.744 211.428 296.428 211.437 297.104C211.428 297.78 211.402 298.464 211.262 299.14C211.121 298.464 211.095 297.78 211.086 297.104C211.095 296.428 211.121 295.752 211.262 295.068Z" fill="#F67400"/>
<path d="M223.004 295.068C223.144 295.744 223.17 296.428 223.179 297.104C223.17 297.78 223.144 298.464 223.004 299.14C222.864 298.464 222.837 297.78 222.829 297.104C222.837 296.428 222.872 295.752 223.004 295.068Z" fill="#F67400"/>
<path d="M234.755 295.068C234.895 295.744 234.921 296.428 234.93 297.104C234.921 297.78 234.895 298.464 234.755 299.14C234.615 298.464 234.588 297.78 234.58 297.104C234.58 296.428 234.615 295.752 234.755 295.068Z" fill="#F67400"/>
<path d="M246.497 295.068C246.637 295.744 246.663 296.428 246.672 297.104C246.663 297.78 246.637 298.464 246.497 299.14C246.357 298.464 246.33 297.78 246.322 297.104C246.322 296.428 246.357 295.752 246.497 295.068Z" fill="#F67400"/>
<path d="M258.239 295.068C258.379 295.744 258.405 296.428 258.414 297.104C258.405 297.78 258.379 298.464 258.239 299.14C258.099 298.464 258.072 297.78 258.064 297.104C258.072 296.428 258.099 295.752 258.239 295.068Z" fill="#F67400"/>
<path d="M269.981 295.068C270.121 295.744 270.148 296.428 270.156 297.104C270.148 297.78 270.121 298.464 269.981 299.14C269.841 298.464 269.815 297.78 269.806 297.104C269.815 296.428 269.85 295.752 269.981 295.068Z" fill="#F67400"/>
<path d="M281.732 295.068C281.872 295.744 281.898 296.428 281.907 297.104C281.898 297.78 281.872 298.464 281.732 299.14C281.592 298.464 281.566 297.78 281.557 297.104C281.557 296.428 281.592 295.752 281.732 295.068Z" fill="#F67400"/>
<path d="M293.474 295.068C293.614 295.744 293.641 296.428 293.649 297.104C293.641 297.78 293.614 298.464 293.474 299.14C293.334 298.464 293.308 297.78 293.299 297.104C293.299 296.428 293.334 295.752 293.474 295.068Z" fill="#F67400"/>
<path d="M305.216 295.068C305.356 295.744 305.382 296.428 305.391 297.104C305.382 297.78 305.356 298.464 305.216 299.14C305.076 298.464 305.049 297.78 305.041 297.104C305.049 296.428 305.076 295.752 305.216 295.068Z" fill="#F67400"/>
<path d="M316.958 295.068C317.098 295.744 317.124 296.428 317.133 297.104C317.124 297.78 317.098 298.464 316.958 299.14C316.818 298.464 316.791 297.78 316.783 297.104C316.791 296.428 316.827 295.752 316.958 295.068Z" fill="#F67400"/>
<path d="M328.709 295.068C328.849 295.744 328.875 296.428 328.884 297.104C328.875 297.78 328.849 298.464 328.709 299.14C328.568 298.464 328.542 297.78 328.533 297.104C328.533 296.428 328.568 295.752 328.709 295.068Z" fill="#F67400"/>
<path d="M340.451 295.068C340.591 295.744 340.617 296.428 340.626 297.104C340.617 297.78 340.591 298.464 340.451 299.14C340.311 298.464 340.285 297.78 340.276 297.104C340.276 296.428 340.311 295.752 340.451 295.068Z" fill="#F67400"/>
<path d="M38.0806 295.068H18.8257C18.8257 295.068 18.8695 292.198 20.7608 291.435C22.6522 290.671 23.7817 292.163 23.7817 292.163C23.7817 292.163 24.5522 286.88 28.081 286.88C31.6098 286.88 33.291 291.435 33.291 291.435C33.291 291.435 34.079 290.057 36.0404 290.311C38.0018 290.575 38.0806 295.068 38.0806 295.068Z" fill="#CB6509"/>
<path d="M347.534 295.068C347.534 295.068 346.948 292.312 345.766 291.882C344.583 291.461 343.874 292.698 343.874 292.698C343.874 292.698 343.594 290.066 341.922 289.276C340.249 288.486 338.997 290.101 338.997 290.101C338.997 290.101 337.719 286.757 335.424 286.757C333.13 286.757 331.975 291.654 331.975 291.654C331.975 291.654 330.626 290.197 329.234 291.022C327.85 291.847 327.85 295.077 327.85 295.077H347.534V295.068Z" fill="#CB6509"/>
<path d="M167.786 295.068C167.786 295.068 167.2 292.312 166.018 291.882C164.835 291.461 164.126 292.698 164.126 292.698C164.126 292.698 163.846 290.066 162.174 289.276C160.501 288.486 159.249 290.101 159.249 290.101C159.249 290.101 157.971 286.757 155.676 286.757C153.382 286.757 152.226 291.654 152.226 291.654C152.226 291.654 150.878 290.197 149.486 291.022C148.102 291.847 148.102 295.077 148.102 295.077H167.786V295.068Z" fill="#CB6509"/>
<path d="M22.2757 295.068H4.52686C4.52686 295.068 5.11352 292.558 6.28686 292.382C7.46019 292.207 8.01183 293.365 8.01183 293.365C8.01183 293.365 7.95929 289.864 10.1571 289.276C12.3549 288.679 14.2025 291.768 14.2025 291.768C14.2025 291.768 15.5772 290.004 17.4598 290.118C19.3336 290.232 19.8152 293.146 19.8152 293.146C19.8152 293.146 21.5227 292.137 22.2757 295.068Z" fill="#CB6509"/>
<path d="M151.938 295.068H134.189C134.189 295.068 134.776 292.558 135.949 292.382C137.122 292.207 137.674 293.365 137.674 293.365C137.674 293.365 137.621 289.864 139.819 289.276C142.017 288.679 143.865 291.768 143.865 291.768C143.865 291.768 145.239 290.004 147.122 290.118C148.996 290.232 149.477 293.146 149.477 293.146C149.477 293.146 151.176 292.137 151.938 295.068Z" fill="#CB6509"/>
<path d="M329.12 295.068H318.218C318.218 295.068 318.245 293.444 319.313 293.006C320.381 292.576 321.02 293.418 321.02 293.418C321.02 293.418 321.458 290.426 323.454 290.426C325.451 290.426 326.405 293.006 326.405 293.006C326.405 293.006 326.852 292.224 327.964 292.374C329.076 292.523 329.12 295.068 329.12 295.068Z" fill="#CB6509"/>
<path d="M195.701 295.068H184.8C184.8 295.068 184.826 293.444 185.894 293.006C186.963 292.576 187.602 293.418 187.602 293.418C187.602 293.418 188.04 290.426 190.036 290.426C192.032 290.426 192.987 293.006 192.987 293.006C192.987 293.006 193.433 292.224 194.545 292.374C195.658 292.523 195.701 295.068 195.701 295.068Z" fill="#CB6509"/>
</g>
<defs>
<clipPath id="clip0_246_5912">
<rect width="352" height="301" fill="white"/>
</clipPath>
</defs>
</svg>
