<svg width="28" height="28" viewBox="0 0 28 28" fill="none" xmlns="http://www.w3.org/2000/svg">
<path d="M19.8334 3.50002H24.5C25.1444 3.50002 25.6667 4.02236 25.6667 4.66669V23.3334C25.6667 23.9777 25.1444 24.5 24.5 24.5H3.50004C2.85571 24.5 2.33337 23.9777 2.33337 23.3334V4.66669C2.33337 4.02236 2.85571 3.50002 3.50004 3.50002H8.16671V1.16669H10.5V3.50002H17.5V1.16669H19.8334V3.50002ZM4.66671 10.5V22.1667H23.3334V10.5H4.66671ZM7.00004 12.8334H9.33337V15.1667H7.00004V12.8334ZM12.8334 12.8334H15.1667V15.1667H12.8334V12.8334ZM18.6667 12.8334H21V15.1667H18.6667V12.8334Z" fill="#444444"/>
</svg>
