<svg width="13" height="14" viewBox="0 0 13 14" fill="none" xmlns="http://www.w3.org/2000/svg">
<path d="M5.18366 5.01154C6.0721 4.15261 6.0721 2.75998 5.18366 1.90104C4.29522 1.0421 2.85477 1.0421 1.96633 1.90104C1.07789 2.75998 1.07789 4.15261 1.96633 5.01154L3.575 6.56677L5.18366 5.01154ZM3.575 8.34425L1.04709 5.90027C-0.34903 4.55049 -0.34903 2.36209 1.04709 1.01232C2.44322 -0.337441 4.70677 -0.337441 6.10291 1.01232C7.49904 2.36209 7.49904 4.55049 6.10291 5.90027L3.575 8.34425ZM3.575 4.39892C3.03652 4.39892 2.6 3.97689 2.6 3.45629C2.6 2.93569 3.03652 2.51367 3.575 2.51367C4.11347 2.51367 4.54999 2.93569 4.54999 3.45629C4.54999 3.97689 4.11347 4.39892 3.575 4.39892ZM9.42499 12.2225L11.0337 10.6673C11.9221 9.80833 11.9221 8.41576 11.0337 7.55678C10.1452 6.69786 8.70479 6.69786 7.81631 7.55678C6.92789 8.41576 6.92789 9.80833 7.81631 10.6673L9.42499 12.2225ZM11.9529 11.556L9.42499 14L6.89708 11.556C5.50094 10.2062 5.50094 8.01785 6.89708 6.66807C8.29321 5.31831 10.5568 5.31831 11.9529 6.66807C13.349 8.01785 13.349 10.2062 11.9529 11.556ZM9.42499 10.0547C8.88653 10.0547 8.44999 9.63263 8.44999 9.11205C8.44999 8.59147 8.88653 8.16942 9.42499 8.16942C9.96345 8.16942 10.4 8.59147 10.4 9.11205C10.4 9.63263 9.96345 10.0547 9.42499 10.0547Z" fill="#023047"/>
</svg>
