<svg width="28" height="28" viewBox="0 0 28 28" fill="none" xmlns="http://www.w3.org/2000/svg">
<path d="M21.4247 20.258L14 27.6825L6.57538 20.258C2.47487 16.1574 2.47487 9.5092 6.57538 5.40869C10.6759 1.30819 17.3241 1.30819 21.4247 5.40869C25.5252 9.5092 25.5252 16.1574 21.4247 20.258ZM14 17.5C16.5773 17.5 18.6667 15.4106 18.6667 12.8333C18.6667 10.256 16.5773 8.16665 14 8.16665C11.4227 8.16665 9.33333 10.256 9.33333 12.8333C9.33333 15.4106 11.4227 17.5 14 17.5ZM14 15.1666C12.7113 15.1666 11.6667 14.122 11.6667 12.8333C11.6667 11.5446 12.7113 10.5 14 10.5C15.2887 10.5 16.3333 11.5446 16.3333 12.8333C16.3333 14.122 15.2887 15.1666 14 15.1666Z" fill="#444444"/>
</svg>
