<svg width="32" height="32" viewBox="0 0 32 32" fill="none" xmlns="http://www.w3.org/2000/svg">
<path d="M24.4853 21.5062L16 30L7.51472 21.5062C2.82843 16.815 2.82843 9.20935 7.51472 4.51829C12.201 -0.172765 19.7989 -0.172765 24.4853 4.51829C29.1716 9.20935 29.1716 16.815 24.4853 21.5062ZM16 18.351C18.9455 18.351 21.3333 15.9607 21.3333 13.0122C21.3333 10.0637 18.9455 7.67345 16 7.67345C13.0545 7.67345 10.6667 10.0637 10.6667 13.0122C10.6667 15.9607 13.0545 18.351 16 18.351ZM16 15.6816C14.5272 15.6816 13.3333 14.4865 13.3333 13.0122C13.3333 11.5379 14.5272 10.3428 16 10.3428C17.4728 10.3428 18.6667 11.5379 18.6667 13.0122C18.6667 14.4865 17.4728 15.6816 16 15.6816Z" fill="#023047"/>
</svg>
