<svg width="36" height="36" viewBox="0 0 36 36" fill="none" xmlns="http://www.w3.org/2000/svg">
<circle cx="18" cy="18" r="18" fill="#EEEEEE"/>
<path d="M24 16C24 12.6863 21.3137 10 18 10C14.6863 10 12 12.6863 12 16V24H24V16ZM26 24.6667L26.4 25.2C26.5657 25.4209 26.5209 25.7343 26.3 25.9C26.2135 25.9649 26.1082 26 26 26H10C9.72386 26 9.5 25.7761 9.5 25.5C9.5 25.3918 9.53509 25.2865 9.6 25.2L10 24.6667V16C10 11.5817 13.5817 8 18 8C22.4183 8 26 11.5817 26 16V24.6667ZM15.5 27H20.5C20.5 28.3807 19.3807 29.5 18 29.5C16.6193 29.5 15.5 28.3807 15.5 27Z" fill="#023047"/>
</svg>
