<svg width="14" height="14" viewBox="0 0 14 14" fill="none" xmlns="http://www.w3.org/2000/svg">
<path d="M6.61958 1.17082C6.73932 0.802296 7.26068 0.802296 7.38042 1.17082L8.48179 4.56049C8.53534 4.7253 8.68892 4.83688 8.86222 4.83688H12.4263C12.8138 4.83688 12.9749 5.33273 12.6614 5.56049L9.77801 7.65542C9.63782 7.75728 9.57915 7.93782 9.6327 8.10263L10.7341 11.4923C10.8538 11.8608 10.432 12.1673 10.1185 11.9395L7.23511 9.84458C7.09492 9.74273 6.90508 9.74273 6.76489 9.84458L3.88146 11.9395C3.56798 12.1673 3.14618 11.8608 3.26593 11.4923L4.3673 8.10263C4.42085 7.93782 4.36218 7.75728 4.22199 7.65542L1.33856 5.56049C1.02508 5.33273 1.18619 4.83688 1.57368 4.83688H5.13778C5.31108 4.83688 5.46466 4.7253 5.51821 4.56049L6.61958 1.17082Z" fill="#FFB705"/>
</svg>
