<svg width="12" height="12" viewBox="0 0 12 12" fill="none" xmlns="http://www.w3.org/2000/svg">
<path d="M4.80924 0.0873776C3.97187 -0.183696 3.06156 0.193361 2.66111 0.977169L2.17969 1.91947C2.12249 2.03143 2.03143 2.12249 1.91947 2.17969L0.977169 2.66111C0.193361 3.06156 -0.183696 3.97187 0.0873776 4.80924L0.413268 5.81596C0.45199 5.93558 0.45199 6.06439 0.413268 6.184L0.0873776 7.19072C-0.183696 8.02812 0.193361 8.93841 0.977169 9.33889L1.91947 9.82026C2.03143 9.8775 2.12249 9.96855 2.17969 10.0805L2.66111 11.0228C3.06156 11.8066 3.97187 12.1837 4.80924 11.9126L5.81596 11.5867C5.93558 11.548 6.06439 11.548 6.184 11.5867L7.19072 11.9126C8.02812 12.1837 8.93841 11.8066 9.33889 11.0228L9.82026 10.0805C9.8775 9.96855 9.96855 9.8775 10.0805 9.82026L11.0228 9.33889C11.8066 8.93841 12.1837 8.02812 11.9126 7.19072L11.5867 6.184C11.548 6.06439 11.548 5.93558 11.5867 5.81596L11.9126 4.80924C12.1837 3.97187 11.8066 3.06156 11.0228 2.66111L10.0805 2.17969C9.96855 2.12249 9.8775 2.03143 9.82026 1.91947L9.33889 0.977169C8.93841 0.193361 8.02812 -0.183696 7.19072 0.0873776L6.184 0.413268C6.06439 0.451984 5.93558 0.45199 5.81596 0.413268L4.80924 0.0873776ZM2.86915 5.85498L3.71409 5.00999L5.40395 6.69991L8.78373 3.32016L9.62865 4.1651L5.40395 8.38976L2.86915 5.85498Z" fill="#0855C0"/>
</svg>
