<svg width="96" height="84" viewBox="0 0 96 84" fill="none" xmlns="http://www.w3.org/2000/svg">
<path d="M14.7114 65.6916C15.2742 64.4741 15.7099 63.2307 16.0271 61.9758C6.41997 56.1221 0 45.513 0 33.3964C0 14.9523 14.8771 0 33.2284 0C51.5798 0 66.4569 14.9523 66.4569 33.3964C66.4569 51.8406 51.5798 66.7929 33.2284 66.7929C30.7213 66.7929 28.2813 66.5114 25.9327 65.9831C21.6056 71.4003 14.8885 74.292 8.08997 73.8081C10.8557 71.7765 13.1642 69.0341 14.7114 65.6916Z" fill="#FC8800"/>
<path d="M5.91865 36.6625C5.91865 20.3749 19.0557 7.16997 35.2628 7.16997C44.7356 7.16997 53.1584 11.6826 58.5227 18.6835C53.4556 9.84197 43.9585 3.89062 33.0785 3.89062C16.8729 3.89062 3.73438 17.0941 3.73438 33.3831C3.73438 40.15 6.00437 46.3842 9.81721 51.3606C7.33722 47.0346 5.91865 42.0151 5.91865 36.6625Z" fill="#FFB35A"/>
<path d="M66.4419 32.3442C66.4405 32.3226 66.4405 32.3025 66.439 32.2824C66.0462 20.7487 59.8234 10.704 50.6405 5.02686C53.9448 10.2101 55.8605 16.3739 55.8605 22.9871C55.8605 41.4025 41.0077 56.3304 22.6849 56.3304C16.3221 56.3304 10.3779 54.5285 5.32788 51.4071C8.03644 55.6556 11.6779 59.2437 15.9607 61.8855C15.9521 61.897 15.945 61.9099 15.9364 61.9214C15.9678 61.9401 15.9964 61.9602 16.0278 61.9788C15.7107 63.2337 15.275 64.4771 14.7121 65.6947C13.165 69.0372 10.8579 71.7795 8.09216 73.8126C14.8907 74.2965 21.6078 71.4048 25.9349 65.9875C25.9521 65.9919 25.9678 65.9947 25.9849 65.9976C25.9835 65.9904 25.9821 65.9847 25.9806 65.9775C28.3306 66.5087 30.7749 66.7901 33.2835 66.7901C39.7134 66.7901 46.0734 64.8806 51.4477 61.3327C56.1877 58.2041 60.1034 53.8551 62.7219 48.7983C64.7819 44.8226 66.0219 40.4377 66.3619 35.9681C66.4519 34.7979 66.4805 33.5459 66.4419 32.3442Z" fill="#FC8800"/>
<path d="M81.2885 75.8298C80.7256 74.6123 80.2899 73.3689 79.9728 72.114C89.5799 66.2603 95.9998 55.6512 95.9998 43.5346C95.9998 25.0905 81.1228 10.1382 62.7714 10.1382C44.4201 10.1382 29.543 25.0905 29.543 43.5346C29.543 61.9788 44.4201 76.931 62.7714 76.931C65.2785 76.931 67.7185 76.6496 70.0671 76.1213C74.3942 81.5385 81.1113 84.4302 87.9099 83.9463C85.1442 81.9147 82.8356 79.1723 81.2885 75.8298Z" fill="#FC8800"/>
<path d="M81.2889 75.8296C80.7289 74.6192 80.2947 73.3815 79.9775 72.1338C89.5818 66.2916 96.0003 55.6941 96.0003 43.5875C96.0003 31.5685 89.6718 21.0356 80.1818 15.1689C83.4861 20.3521 85.4018 26.516 85.4018 33.1292C85.4018 51.5446 70.549 66.4725 52.2262 66.4725C45.8634 66.4725 39.9191 64.6706 34.8691 61.5492C40.7648 70.8 51.0834 76.9322 62.8247 76.9322C65.3147 76.9322 67.7404 76.6537 70.0733 76.1311C74.4004 81.5425 81.1147 84.4314 87.9089 83.9475C85.1446 81.9144 82.8361 79.1721 81.2889 75.8296Z" fill="#E27A00"/>
<path d="M35.4609 46.807C35.4609 30.5194 48.598 17.3145 64.805 17.3145C74.2779 17.3145 82.7007 21.8272 88.0649 28.8281C82.9978 19.9865 73.5007 14.0352 62.6208 14.0352C46.4151 14.0352 33.2766 27.2387 33.2766 43.5277C33.2766 50.2945 35.5466 56.5287 39.3594 61.5052C36.8795 57.1791 35.4609 52.1596 35.4609 46.807Z" fill="#FFB35A"/>
<path d="M50.5428 47.4385C52.266 47.4385 53.6628 46.0346 53.6628 44.3027C53.6628 42.5709 52.266 41.167 50.5428 41.167C48.8197 41.167 47.4229 42.5709 47.4229 44.3027C47.4229 46.0346 48.8197 47.4385 50.5428 47.4385Z" fill="white"/>
<path d="M62.7701 47.4385C64.4933 47.4385 65.8901 46.0346 65.8901 44.3027C65.8901 42.5709 64.4933 41.167 62.7701 41.167C61.047 41.167 59.6501 42.5709 59.6501 44.3027C59.6501 46.0346 61.047 47.4385 62.7701 47.4385Z" fill="white"/>
<path d="M74.7018 47.4385C76.4249 47.4385 77.8218 46.0346 77.8218 44.3027C77.8218 42.5709 76.4249 41.167 74.7018 41.167C72.9786 41.167 71.5818 42.5709 71.5818 44.3027C71.5818 46.0346 72.9786 47.4385 74.7018 47.4385Z" fill="white"/>
</svg>
