<svg width="25" height="24" viewBox="0 0 25 24" fill="none" xmlns="http://www.w3.org/2000/svg">
<path d="M20.5 22H18.5V20C18.5 18.3431 17.1569 17 15.5 17H9.5C7.84315 17 6.5 18.3431 6.5 20V22H4.5V20C4.5 17.2386 6.73858 15 9.5 15H15.5C18.2614 15 20.5 17.2386 20.5 20V22ZM12.5 13C9.18629 13 6.5 10.3137 6.5 7C6.5 3.68629 9.18629 1 12.5 1C15.8137 1 18.5 3.68629 18.5 7C18.5 10.3137 15.8137 13 12.5 13ZM12.5 11C14.7091 11 16.5 9.20914 16.5 7C16.5 4.79086 14.7091 3 12.5 3C10.2909 3 8.5 4.79086 8.5 7C8.5 9.20914 10.2909 11 12.5 11Z" fill="#393939"/>
</svg>
