<svg width="160" height="153" viewBox="0 0 160 153" fill="none" xmlns="http://www.w3.org/2000/svg">
<path d="M105.052 0C114.791 0 122.686 14.8351 122.686 27.4028C122.686 39.9723 114.791 50.1614 105.052 50.1614C95.3128 50.1614 87.4182 39.9723 87.4182 27.4028C87.4182 14.8351 95.3128 0 105.052 0Z" fill="#FDFDFD"/>
<path d="M54.9476 0C64.6869 0 72.5815 14.8351 72.5815 27.4028C72.5815 39.9723 64.6869 50.1614 54.9476 50.1614C45.2083 50.1614 37.3137 39.9723 37.3137 27.4028C37.3137 14.8351 45.2083 0 54.9476 0Z" fill="#FDFDFD"/>
<path d="M2.13634 66.2876C-1.99919 55.9194 -0.188367 41.0052 8.06763 37.703C16.3236 34.4009 27.8982 43.9605 32.0337 54.3287C36.1693 64.6968 32.83 75.7793 24.574 79.0814C16.318 82.3836 6.27187 76.6538 2.13634 66.2876Z" fill="#FDFDFD"/>
<path d="M157.864 66.2876C153.728 76.6557 143.682 82.3836 135.426 79.0814C127.17 75.7793 123.829 64.6968 127.966 54.3287C132.102 43.9605 143.676 34.4009 151.932 37.703C160.188 41.0052 161.999 55.9194 157.864 66.2876Z" fill="#FDFDFD"/>
<path d="M142.114 119.239C140.222 110.748 135.714 103.09 130.728 95.9917C119.042 79.3642 100.33 62.5746 79.0253 62.5746C57.8093 62.5746 39.0102 79.3604 27.3227 95.9917C22.3345 103.09 17.8262 110.746 15.9363 119.239C14.0446 127.729 15.0799 137.227 20.3335 144.125C25.5872 151.023 35.5392 154.467 43.3208 150.733C47.9476 148.513 51.6916 144.037 56.7966 143.605C61.4818 143.209 65.6229 146.37 69.5326 149.012C72.358 150.922 75.7632 152.659 79.0253 152.682C82.2874 152.659 85.6926 150.922 88.518 149.012C92.4258 146.37 96.5669 143.211 101.254 143.605C106.359 144.035 110.103 148.513 114.73 150.733C122.511 154.467 132.463 151.023 137.717 144.125C142.971 137.227 144.006 127.729 142.114 119.239ZM97.5834 109.01C95.1796 113.407 91.3867 117.282 88.1829 120.296C86.4606 121.917 84.6516 123.432 82.7674 124.834C82.7636 124.836 82.7599 124.84 82.7561 124.842C80.5425 126.474 77.5081 126.474 75.2945 124.842C75.2907 124.838 75.2869 124.836 75.2832 124.834C73.3989 123.434 71.59 121.917 69.8676 120.296C66.6639 117.282 64.3429 113.95 61.5194 111.405C59.7312 109.794 77.9975 138.934 79.0253 134.777C80.0098 130.792 76.5858 130.649 80.437 130.159C84.8907 129.593 76.6516 126.084 79.59 129.688C82.5265 126.084 74.5716 126.955 79.0253 127.52C82.8766 128.008 104.928 120.85 105.913 124.834C106.941 128.992 99.5693 105.378 97.5834 109.01Z" fill="#FDFDFD"/>
</svg>
